<!--?xml version="1.0" standalone="no"?-->
              <svg id="sw-js-blob-svg" viewBox="0 0 100 100" xmlns="http://www.w3.org/2000/svg" version="1.1">
                    <defs> 
                        <linearGradient id="sw-gradient" x1="0" x2="1" y1="1" y2="0">
                            <stop id="stop1" stop-color="rgba(248, 117, 55, 1)" offset="0%"></stop>
                            <stop id="stop2" stop-color="rgba(251, 168, 31, 1)" offset="100%"></stop>
                        </linearGradient>
                    </defs>
                    
                                    <path fill="url(#sw-gradient)" d="M9.3,-19.2C11.6,-14.8,12.6,-11.4,16.9,-8.3C21.1,-5.3,28.5,-2.6,31.1,1.5C33.7,5.6,31.5,11.3,29.6,18.3C27.7,25.4,26.1,33.9,21.2,37.6C16.3,41.2,8.2,40.1,0.8,38.6C-6.5,37.2,-13,35.4,-18.5,32.1C-24,28.9,-28.6,24,-31.6,18.4C-34.6,12.8,-36.1,6.4,-34.4,1C-32.7,-4.4,-27.7,-8.8,-24.4,-13.9C-21.1,-19.1,-19.5,-25.1,-15.7,-28.6C-12,-32.1,-6,-33.1,-1.2,-30.9C3.5,-28.8,7.1,-23.6,9.3,-19.2Z" width="100%" height="100%" transform="translate(50 50)" stroke-width="0" style="transition: all 0.3s ease 0s;"></path>

              </svg>

              