<svg width="300" height="300" viewBox="0 0 300 300" fill="none" xmlns="http://www.w3.org/2000/svg">
<rect width="300" height="300" rx="150" fill="#FFECD1"/>
<line x1="90" y1="76.5" x2="68" y2="76.5" stroke="#525252"/>
<line x1="90" y1="83.5" x2="61" y2="83.5" stroke="#525252"/>
<line x1="89.5" y1="82.5" x2="89.5" y2="77.5" stroke="#525252"/>
<line x1="91" y1="76.5" x2="108" y2="76.5" stroke="#525252"/>
<line y1="-0.5" x2="18" y2="-0.5" transform="matrix(1 -1.40848e-07 -5.42624e-08 -1 91 83)" stroke="#525252"/>
<line y1="-0.5" x2="5" y2="-0.5" transform="matrix(0 -1 -1 0 91 82.5)" stroke="#525252"/>
<line x1="83" y1="85.5" x2="108" y2="85.5" stroke="#525252"/>
<line y1="-0.5" x2="24" y2="-0.5" transform="matrix(1 -1.05636e-07 -7.23499e-08 -1 83 92)" stroke="#525252"/>
<line y1="-0.5" x2="5" y2="-0.5" transform="matrix(0 -1 -1 0 83 91.5)" stroke="#525252"/>
<line x1="82" y1="85.5" x2="60" y2="85.5" stroke="#525252"/>
<line x1="82" y1="92.5" x2="53" y2="92.5" stroke="#525252"/>
<line x1="81.5" y1="91.5" x2="81.5" y2="86.5" stroke="#525252"/>
<line y1="-0.5" x2="29.8571" y2="-0.5" transform="matrix(1 -6.44168e-08 -1.18645e-07 -1 89.7857 94)" stroke="#525252"/>
<line y1="-0.5" x2="39.3571" y2="-0.5" transform="matrix(1 -6.44168e-08 -1.18645e-07 -1 89.7857 101)" stroke="#525252"/>
<line y1="-0.5" x2="5" y2="-0.5" transform="matrix(0 -1 -1 0 89.7857 100.5)" stroke="#525252"/>
<line y1="-0.5" x2="23.0714" y2="-0.5" transform="matrix(-1 0 0 1 88.4286 95)" stroke="#525252"/>
<line x1="88.4286" y1="101.5" x2="64" y2="101.5" stroke="#525252"/>
<line x1="87.9286" y1="100.5" x2="87.9286" y2="95.5" stroke="#525252"/>
<line y1="-0.5" x2="33.9286" y2="-0.5" transform="matrix(-1 0 0 1 99.2857 104)" stroke="#525252"/>
<line x1="99.2857" y1="110.5" x2="66.7143" y2="110.5" stroke="#525252"/>
<line x1="98.7857" y1="109.5" x2="98.7857" y2="104.5" stroke="#525252"/>
<line x1="207" y1="159.5" x2="185" y2="159.5" stroke="#525252"/>
<line x1="207" y1="166.5" x2="178" y2="166.5" stroke="#525252"/>
<line x1="206.5" y1="165.5" x2="206.5" y2="160.5" stroke="#525252"/>
<line x1="208" y1="159.5" x2="225" y2="159.5" stroke="#525252"/>
<line y1="-0.5" x2="18" y2="-0.5" transform="matrix(1 -1.40848e-07 -5.42624e-08 -1 208 166)" stroke="#525252"/>
<line y1="-0.5" x2="5" y2="-0.5" transform="matrix(0 -1 -1 0 208 165.5)" stroke="#525252"/>
<line x1="200" y1="168.5" x2="225" y2="168.5" stroke="#525252"/>
<line y1="-0.5" x2="24" y2="-0.5" transform="matrix(1 -1.05636e-07 -7.23499e-08 -1 200 175)" stroke="#525252"/>
<line y1="-0.5" x2="5" y2="-0.5" transform="matrix(0 -1 -1 0 200 174.5)" stroke="#525252"/>
<line x1="199" y1="168.5" x2="177" y2="168.5" stroke="#525252"/>
<line x1="199" y1="175.5" x2="170" y2="175.5" stroke="#525252"/>
<line x1="198.5" y1="174.5" x2="198.5" y2="169.5" stroke="#525252"/>
<line y1="-0.5" x2="29.8571" y2="-0.5" transform="matrix(1 -6.44168e-08 -1.18645e-07 -1 206.786 177)" stroke="#525252"/>
<line y1="-0.5" x2="39.3571" y2="-0.5" transform="matrix(1 -6.44168e-08 -1.18645e-07 -1 206.786 184)" stroke="#525252"/>
<line y1="-0.5" x2="5" y2="-0.5" transform="matrix(0 -1 -1 0 206.786 183.5)" stroke="#525252"/>
<line y1="-0.5" x2="23.0714" y2="-0.5" transform="matrix(-1 0 0 1 205.429 178)" stroke="#525252"/>
<line x1="205.429" y1="184.5" x2="181" y2="184.5" stroke="#525252"/>
<line x1="204.929" y1="183.5" x2="204.929" y2="178.5" stroke="#525252"/>
<line y1="-0.5" x2="33.9286" y2="-0.5" transform="matrix(-1 0 0 1 216.286 187)" stroke="#525252"/>
<line x1="216.286" y1="193.5" x2="183.714" y2="193.5" stroke="#525252"/>
<line x1="215.786" y1="192.5" x2="215.786" y2="187.5" stroke="#525252"/>
<line y1="-0.5" x2="29.182" y2="-0.5" transform="matrix(1 -6.59071e-08 -1.15962e-07 -1 196.921 122)" stroke="#525252"/>
<line y1="-0.5" x2="38.4672" y2="-0.5" transform="matrix(1 -6.59071e-08 -1.15962e-07 -1 196.921 129)" stroke="#525252"/>
<line y1="-0.5" x2="5" y2="-0.5" transform="matrix(0 -1 -1 0 196.921 128.5)" stroke="#525252"/>
<line y1="-0.5" x2="22.5497" y2="-0.5" transform="matrix(-1 0 0 1 195.595 123)" stroke="#525252"/>
<line x1="195.595" y1="129.5" x2="171.719" y2="129.5" stroke="#525252"/>
<line x1="195.095" y1="128.5" x2="195.095" y2="123.5" stroke="#525252"/>
<line y1="-0.5" x2="33.1614" y2="-0.5" transform="matrix(-1 0 0 1 206.206 132)" stroke="#525252"/>
<line x1="206.206" y1="138.5" x2="174.371" y2="138.5" stroke="#525252"/>
<line x1="205.706" y1="137.5" x2="205.706" y2="132.5" stroke="#525252"/>
<line y1="-0.5" x2="29.182" y2="-0.5" transform="matrix(1 -6.59071e-08 -1.15962e-07 -1 207.533 131)" stroke="#525252"/>
<line y1="-0.5" x2="38.4672" y2="-0.5" transform="matrix(1 -6.59071e-08 -1.15962e-07 -1 207.533 138)" stroke="#525252"/>
<line y1="-0.5" x2="5" y2="-0.5" transform="matrix(0 -1 -1 0 207.533 137.5)" stroke="#525252"/>
<line x1="197.205" y1="140.5" x2="157.601" y2="140.5" stroke="#525252"/>
<line x1="197.205" y1="147.5" x2="145" y2="147.5" stroke="#525252"/>
<line x1="196.705" y1="146.5" x2="196.705" y2="141.5" stroke="#525252"/>
<line x1="199.006" y1="140.5" x2="229.609" y2="140.5" stroke="#525252"/>
<line y1="-0.5" x2="32.4034" y2="-0.5" transform="matrix(1 -7.82406e-08 -9.76825e-08 -1 199.006 147)" stroke="#525252"/>
<line y1="-0.5" x2="5" y2="-0.5" transform="matrix(0 -1 -1 0 199.006 146.5)" stroke="#525252"/>
<line x1="184.604" y1="149.5" x2="229.609" y2="149.5" stroke="#525252"/>
<line y1="-0.5" x2="43.2045" y2="-0.5" transform="matrix(1 -5.86805e-08 -1.30243e-07 -1 184.604 156)" stroke="#525252"/>
<line y1="-0.5" x2="5" y2="-0.5" transform="matrix(0 -1 -1 0 184.604 155.5)" stroke="#525252"/>
<line x1="108" y1="112.5" x2="86" y2="112.5" stroke="#525252"/>
<line x1="108" y1="119.5" x2="79" y2="119.5" stroke="#525252"/>
<line x1="107.5" y1="118.5" x2="107.5" y2="113.5" stroke="#525252"/>
<line x1="109" y1="112.5" x2="126" y2="112.5" stroke="#783434"/>
<line y1="-0.5" x2="18" y2="-0.5" transform="matrix(1 -1.40848e-07 -5.42624e-08 -1 109 119)" stroke="#783434"/>
<line y1="-0.5" x2="5" y2="-0.5" transform="matrix(0 -1 -1 0 109 118.5)" stroke="#783434"/>
<line x1="101" y1="121.5" x2="126" y2="121.5" stroke="#525252"/>
<line y1="-0.5" x2="24" y2="-0.5" transform="matrix(1 -1.05636e-07 -7.23499e-08 -1 101 128)" stroke="#525252"/>
<line y1="-0.5" x2="5" y2="-0.5" transform="matrix(0 -1 -1 0 101 127.5)" stroke="#525252"/>
<line x1="100" y1="121.5" x2="78" y2="121.5" stroke="#525252"/>
<line x1="100" y1="128.5" x2="71" y2="128.5" stroke="#525252"/>
<line x1="99.5" y1="127.5" x2="99.5" y2="122.5" stroke="#525252"/>
<line y1="-0.5" x2="29.8571" y2="-0.5" transform="matrix(1 -6.44168e-08 -1.18645e-07 -1 107.786 130)" stroke="#783434"/>
<line y1="-0.5" x2="39.3571" y2="-0.5" transform="matrix(1 -6.44168e-08 -1.18645e-07 -1 107.786 137)" stroke="#783434"/>
<line y1="-0.5" x2="5" y2="-0.5" transform="matrix(0 -1 -1 0 107.786 136.5)" stroke="#783434"/>
<line y1="-0.5" x2="23.0714" y2="-0.5" transform="matrix(-1 0 0 1 106.429 131)" stroke="#525252"/>
<line x1="106.429" y1="137.5" x2="82" y2="137.5" stroke="#525252"/>
<line x1="105.929" y1="136.5" x2="105.929" y2="131.5" stroke="#525252"/>
<line y1="-0.5" x2="33.9286" y2="-0.5" transform="matrix(-1 0 0 1 117.286 140)" stroke="#525252"/>
<line x1="117.286" y1="146.5" x2="84.7143" y2="146.5" stroke="#525252"/>
<line x1="116.786" y1="145.5" x2="116.786" y2="140.5" stroke="#525252"/>
<line x1="108" y1="112.5" x2="86" y2="112.5" stroke="#525252"/>
<line x1="108" y1="119.5" x2="79" y2="119.5" stroke="#525252"/>
<line x1="107.5" y1="118.5" x2="107.5" y2="113.5" stroke="#525252"/>
<line x1="100" y1="121.5" x2="78" y2="121.5" stroke="#525252"/>
<line x1="100" y1="128.5" x2="71" y2="128.5" stroke="#525252"/>
<line x1="99.5" y1="127.5" x2="99.5" y2="122.5" stroke="#525252"/>
<line y1="-0.5" x2="23.0714" y2="-0.5" transform="matrix(-1 0 0 1 106.429 131)" stroke="#525252"/>
<line x1="106.429" y1="137.5" x2="82" y2="137.5" stroke="#525252"/>
<line x1="105.929" y1="136.5" x2="105.929" y2="131.5" stroke="#525252"/>
<line y1="-0.5" x2="33.9286" y2="-0.5" transform="matrix(-1 0 0 1 117.286 140)" stroke="#525252"/>
<line x1="117.286" y1="146.5" x2="84.7143" y2="146.5" stroke="#525252"/>
<line x1="116.786" y1="145.5" x2="116.786" y2="140.5" stroke="#525252"/>
<line y1="-0.5" x2="29.8571" y2="-0.5" transform="matrix(1 -6.44168e-08 -1.18645e-07 -1 100.643 103)" stroke="#525252"/>
<line y1="-0.5" x2="39.3571" y2="-0.5" transform="matrix(1 -6.44168e-08 -1.18645e-07 -1 100.643 110)" stroke="#525252"/>
<line y1="-0.5" x2="5" y2="-0.5" transform="matrix(0 -1 -1 0 100.643 109.5)" stroke="#525252"/>
<rect x="76" y="55" width="31" height="5" rx="1" fill="#525252"/>
<rect x="192" y="55" width="31" height="5" rx="1" fill="#525252"/>
<path d="M108 55C108 54.4477 108.448 54 109 54H190C190.552 54 191 54.4477 191 55V194.575C191 194.981 190.755 195.347 190.379 195.501L150.434 211.847C150.195 211.945 149.926 211.946 149.686 211.851L108.63 195.497C108.25 195.346 108 194.978 108 194.568V55Z" fill="#525252"/>
<path d="M167.844 113.516C168.104 114.87 168.417 116.094 168.781 117.188C169.146 118.281 169.38 119.479 169.484 120.781C169.484 121.094 169.458 121.406 169.406 121.719C169.406 122.031 169.432 122.344 169.484 122.656V123.594C169.484 124.01 169.432 124.401 169.328 124.766C169.276 125.13 169.25 125.521 169.25 125.938C169.198 126.875 169.042 127.786 168.781 128.672C168.729 129.245 168.677 129.531 168.625 129.531C168.573 129.479 168.547 129.505 168.547 129.609C168.443 130.182 168.365 130.729 168.312 131.25C168.26 131.771 168.182 132.318 168.078 132.891C169.016 132.995 170.083 133.125 171.281 133.281C172.531 133.385 173.703 133.385 174.797 133.281C175.057 133.229 175.292 133.151 175.5 133.047C175.76 132.943 176.021 132.839 176.281 132.734C177.167 132.63 177.87 132.422 178.391 132.109C178.911 131.797 179.536 131.536 180.266 131.328C180.057 131.901 179.797 132.24 179.484 132.344C179.328 132.865 179.172 133.229 179.016 133.438C178.911 133.594 178.781 133.724 178.625 133.828C178.365 134.036 178.13 134.219 177.922 134.375C177.714 134.479 177.479 134.635 177.219 134.844C176.385 135.312 175.708 135.573 175.188 135.625C174.719 135.625 174.276 135.703 173.859 135.859C173.495 135.807 173.052 135.755 172.531 135.703C172.062 135.651 171.646 135.651 171.281 135.703C171.021 135.547 170.734 135.469 170.422 135.469C170.109 135.469 169.797 135.521 169.484 135.625C168.859 135.833 168.443 135.99 168.234 136.094C168.026 136.146 167.818 136.224 167.609 136.328C167.505 136.641 167.427 136.875 167.375 137.031C167.375 137.188 167.349 137.318 167.297 137.422C167.245 137.995 167.193 138.568 167.141 139.141C167.141 139.661 167.062 140.208 166.906 140.781C166.698 141.25 166.594 141.562 166.594 141.719C166.594 141.823 166.542 141.979 166.438 142.188C166.281 142.448 166.151 142.76 166.047 143.125C165.943 143.49 165.839 143.854 165.734 144.219C165.474 144.479 165.318 144.792 165.266 145.156C165.214 145.521 165.161 145.911 165.109 146.328C165.057 146.745 164.927 147.161 164.719 147.578C164.51 147.943 164.302 148.307 164.094 148.672C163.99 148.932 163.885 149.193 163.781 149.453C163.677 149.661 163.547 149.896 163.391 150.156C162.766 150.938 162.167 151.771 161.594 152.656C161.333 153.229 161.047 153.75 160.734 154.219C160.474 154.635 160.214 155.104 159.953 155.625C159.536 156.354 159.016 157.005 158.391 157.578C157.766 158.099 157.141 158.646 156.516 159.219C156.203 159.479 155.891 159.766 155.578 160.078C155.266 160.391 154.979 160.677 154.719 160.938C154.458 161.198 154.172 161.484 153.859 161.797C153.599 162.057 153.339 162.318 153.078 162.578C152.714 162.839 152.323 163.125 151.906 163.438C151.542 163.698 151.151 163.958 150.734 164.219C149.901 164.688 149.068 165.13 148.234 165.547C147.453 165.964 146.62 166.432 145.734 166.953C145.318 167.214 144.927 167.448 144.562 167.656C144.198 167.917 143.807 168.125 143.391 168.281C143.078 168.385 142.74 168.438 142.375 168.438C142.062 168.49 141.75 168.542 141.438 168.594C141.021 168.698 140.63 168.776 140.266 168.828C139.901 168.932 139.484 168.984 139.016 168.984C138.443 168.932 137.792 168.802 137.062 168.594C136.385 168.438 135.865 168.229 135.5 167.969C134.823 167.344 134.406 166.901 134.25 166.641C134.146 166.38 133.964 166.12 133.703 165.859C133.651 165.651 133.573 165.495 133.469 165.391C133.417 165.339 133.391 165.208 133.391 165C133.026 164.479 132.74 163.958 132.531 163.438C132.062 162.448 131.724 161.589 131.516 160.859C131.359 160.078 131.333 159.271 131.438 158.438C131.333 157.604 131.281 156.667 131.281 155.625C131.281 154.531 131.281 153.49 131.281 152.5C131.281 152.135 131.255 151.797 131.203 151.484C131.203 151.12 131.255 150.807 131.359 150.547C131.307 150.13 131.255 149.74 131.203 149.375C131.203 148.958 131.255 148.594 131.359 148.281C131.411 147.76 131.438 147.37 131.438 147.109C131.49 146.849 131.568 146.589 131.672 146.328C131.932 146.068 132.036 145.807 131.984 145.547C131.984 145.286 132.036 145.026 132.141 144.766C132.349 143.359 132.688 142.109 133.156 141.016C133.312 140.599 133.469 140.208 133.625 139.844C133.781 139.427 133.911 139.01 134.016 138.594C134.328 137.708 134.667 136.901 135.031 136.172C135.448 135.443 135.839 134.661 136.203 133.828C136.932 132.318 137.688 130.938 138.469 129.688C139.302 128.385 140.135 127.057 140.969 125.703C141.229 125.547 141.411 125.339 141.516 125.078C141.62 124.766 141.776 124.531 141.984 124.375C142.401 123.49 142.896 122.734 143.469 122.109C144.042 121.484 144.615 120.859 145.188 120.234C145.448 120.026 145.682 119.818 145.891 119.609C146.099 119.349 146.333 119.089 146.594 118.828C146.75 118.672 146.906 118.542 147.062 118.438C147.271 118.281 147.427 118.099 147.531 117.891C147.74 117.786 147.922 117.656 148.078 117.5C148.286 117.344 148.469 117.188 148.625 117.031C148.833 116.875 149.042 116.719 149.25 116.562C149.458 116.406 149.667 116.25 149.875 116.094C150.292 115.781 150.656 115.469 150.969 115.156C151.333 114.792 151.724 114.479 152.141 114.219C152.557 114.167 152.818 114.141 152.922 114.141C153.026 114.141 153.078 114.062 153.078 113.906C153.703 113.385 154.094 113.021 154.25 112.812C154.458 112.552 154.641 112.292 154.797 112.031C155.214 111.771 155.578 111.484 155.891 111.172C156.203 110.807 156.568 110.495 156.984 110.234C157.297 109.87 157.505 109.635 157.609 109.531C157.766 109.427 157.922 109.323 158.078 109.219C158.182 109.062 158.286 108.958 158.391 108.906C158.547 108.802 158.651 108.698 158.703 108.594C158.964 108.49 159.198 108.385 159.406 108.281C159.615 108.125 159.875 107.995 160.188 107.891C160.552 107.943 160.839 107.943 161.047 107.891C161.307 107.839 161.542 107.839 161.75 107.891C162.062 107.943 162.297 108.073 162.453 108.281C162.661 108.438 162.896 108.62 163.156 108.828C163.781 108.932 164.25 109.271 164.562 109.844C164.927 110.365 165.318 110.755 165.734 111.016C165.995 111.432 166.281 111.849 166.594 112.266C166.958 112.63 167.271 113.047 167.531 113.516H167.844ZM161.75 128.438C162.01 128.802 162.323 129.141 162.688 129.453C163.052 129.714 163.417 129.974 163.781 130.234C163.781 128.88 163.833 127.422 163.938 125.859C164.094 124.245 164.12 122.76 164.016 121.406C163.859 120.833 163.677 120.286 163.469 119.766C163.312 119.245 163.182 118.672 163.078 118.047C162.87 117.839 162.714 117.63 162.609 117.422C162.557 117.214 162.479 117.005 162.375 116.797C162.115 116.484 161.984 116.302 161.984 116.25C161.984 116.146 161.932 116.042 161.828 115.938C161.724 115.833 161.594 115.729 161.438 115.625C161.333 115.521 161.229 115.391 161.125 115.234C160.5 115.182 159.979 115.312 159.562 115.625C159.198 115.885 158.833 116.146 158.469 116.406C158.365 117.135 158.339 117.812 158.391 118.438C158.443 119.062 158.521 119.661 158.625 120.234C158.781 121.224 158.938 122.214 159.094 123.203C159.25 124.193 159.51 125.052 159.875 125.781C159.927 126.146 160.135 126.589 160.5 127.109C160.865 127.578 161.281 128.021 161.75 128.438ZM151.281 121.641C151.021 121.901 150.76 122.135 150.5 122.344C150.24 122.552 150.005 122.812 149.797 123.125C149.484 123.385 149.224 123.646 149.016 123.906C148.807 124.167 148.573 124.427 148.312 124.688C148.052 124.948 147.818 125.208 147.609 125.469C147.401 125.677 147.193 125.938 146.984 126.25C146.828 126.354 146.698 126.484 146.594 126.641C146.49 126.797 146.359 126.953 146.203 127.109C145.682 127.786 145.318 128.255 145.109 128.516C144.901 128.776 144.745 129.036 144.641 129.297C144.328 129.505 144.068 129.792 143.859 130.156C143.703 130.469 143.547 130.807 143.391 131.172C143.078 131.589 142.792 132.031 142.531 132.5C142.271 132.969 142.036 133.438 141.828 133.906C141.411 134.635 141.151 135.13 141.047 135.391C140.995 135.651 140.917 135.911 140.812 136.172C140.604 136.484 140.422 136.901 140.266 137.422C139.38 139.297 138.599 141.432 137.922 143.828C137.818 144.297 137.661 144.74 137.453 145.156C137.297 145.573 137.193 145.99 137.141 146.406C137.089 146.615 137.062 146.823 137.062 147.031C137.115 147.24 137.141 147.448 137.141 147.656C137.089 148.177 137.036 148.698 136.984 149.219C136.932 149.688 136.906 150.208 136.906 150.781C136.906 151.823 136.906 152.786 136.906 153.672C136.906 154.557 136.958 155.469 137.062 156.406C137.062 157.083 137.115 157.63 137.219 158.047C137.323 158.255 137.505 158.464 137.766 158.672C138.026 158.88 138.26 159.062 138.469 159.219C138.885 159.635 139.302 160.078 139.719 160.547C140.135 160.964 140.708 161.042 141.438 160.781C141.698 160.938 141.984 160.938 142.297 160.781C142.609 160.625 142.922 160.599 143.234 160.703C143.495 160.599 143.755 160.547 144.016 160.547C144.276 160.495 144.536 160.417 144.797 160.312C145.214 160.208 145.604 160.104 145.969 160C146.385 159.844 146.776 159.714 147.141 159.609C147.557 159.453 147.974 159.323 148.391 159.219C148.807 159.062 149.198 158.88 149.562 158.672C150.604 157.786 151.359 157.083 151.828 156.562C152.193 156.198 152.557 155.885 152.922 155.625C153.286 155.312 153.625 155 153.938 154.688C154.198 154.427 154.458 154.167 154.719 153.906C154.979 153.594 155.214 153.229 155.422 152.812C155.578 152.656 155.708 152.5 155.812 152.344C155.969 152.135 156.099 151.927 156.203 151.719C156.464 151.406 156.646 151.068 156.75 150.703C156.906 150.339 157.115 149.974 157.375 149.609C157.688 148.724 158.052 147.891 158.469 147.109C158.885 146.328 159.224 145.521 159.484 144.688C159.953 143.698 160.344 142.839 160.656 142.109C161.021 141.328 161.281 140.547 161.438 139.766C161.594 139.609 161.672 139.427 161.672 139.219C161.724 138.958 161.802 138.75 161.906 138.594C162.167 137.865 162.375 137.161 162.531 136.484C162.74 135.807 162.948 135.052 163.156 134.219C162.948 134.115 162.766 134.089 162.609 134.141C162.453 134.141 162.297 134.089 162.141 133.984C161.724 133.828 161.333 133.568 160.969 133.203C160.656 132.786 160.292 132.552 159.875 132.5C159.667 132.344 159.484 132.214 159.328 132.109C159.224 132.005 159.068 131.901 158.859 131.797C158.026 130.911 157.219 130 156.438 129.062C155.708 128.073 155.109 126.979 154.641 125.781C154.172 124.74 153.807 123.776 153.547 122.891C153.286 121.953 153.052 120.964 152.844 119.922C152.531 120.234 152.245 120.521 151.984 120.781C151.776 121.042 151.542 121.328 151.281 121.641Z" fill="white"/>
<path d="M93.6 251.008C89.152 251.008 86.928 243.312 86.928 227.92V226C86.928 223.312 87.088 220.976 87.408 218.992C87.6 217.744 87.856 216.72 88.176 215.92C88.528 215.12 88.992 214.48 89.568 214C90.112 213.456 90.816 213.184 91.68 213.184C92.448 213.184 93.152 213.344 93.792 213.664C94.432 213.952 94.96 214.336 95.376 214.816C95.728 215.264 96.048 215.856 96.336 216.592C96.624 217.328 96.848 218.032 97.008 218.704L97.392 220.96C98.16 226.432 98.544 231.28 98.544 235.504V235.648C98.544 237.248 98.512 238.72 98.448 240.064C98.384 241.664 98.208 243.344 97.92 245.104C97.792 245.968 97.6 246.72 97.344 247.36C97.12 248 96.816 248.64 96.432 249.28C95.76 250.432 94.816 251.008 93.6 251.008ZM93.696 249.664C94.208 249.664 94.672 249.376 95.088 248.8C95.504 248.192 95.824 247.36 96.048 246.304C96.56 244.064 96.88 241.872 97.008 239.728C97.072 238 97.104 236.32 97.104 234.688V234.496L97.056 229.696C96.992 227.968 96.8 225.728 96.48 222.976C96.224 221.024 95.696 219.024 94.896 216.976C94.576 216.176 94.144 215.552 93.6 215.104C93.088 214.656 92.528 214.432 91.92 214.432C91.376 214.432 90.896 214.688 90.48 215.2C90.064 215.712 89.728 216.432 89.472 217.36C88.896 219.504 88.576 221.488 88.512 223.312C88.416 224.88 88.368 226.496 88.368 228.16V230.512C88.368 232.656 88.576 235.376 88.992 238.672C89.248 240.752 89.568 242.56 89.952 244.096C90.336 245.632 90.848 246.928 91.488 247.984C92.128 249.104 92.864 249.664 93.696 249.664ZM105.8 250.576C105.448 248.56 105.272 246.256 105.272 243.664C105.272 242.64 105.32 241.152 105.416 239.2L105.512 234.736C105.288 234.288 105.176 233.92 105.176 233.632C105.496 233.12 105.656 231.648 105.656 229.216C105.656 223.392 105.576 220.288 105.416 219.904C105.704 219.104 105.928 218.704 106.088 218.704H108.2C108.552 218.704 109.048 218.88 109.688 219.232C110.36 219.552 110.92 219.904 111.368 220.288C112.168 221.024 112.568 222.912 112.568 225.952C112.568 227.584 112.52 228.832 112.424 229.696C112.36 230.304 112.248 230.784 112.088 231.136C111.96 231.488 111.752 231.888 111.464 232.336C110.984 233.072 110.168 233.712 109.016 234.256C108.536 234.512 107.864 234.768 107 235.024V240.736C107 241.536 107.08 243.104 107.24 245.44L107.336 246.976L107.432 250.096C107.432 250.672 107.128 250.96 106.52 250.96L105.8 250.576ZM107.336 233.392C108.264 233.392 109.048 232.96 109.688 232.096C109.912 231.776 110.12 231.344 110.312 230.8C110.504 230.256 110.632 229.728 110.696 229.216C110.888 228.288 110.984 227.216 110.984 226V224.704C110.984 224.256 110.968 223.824 110.936 223.408C110.904 222.992 110.84 222.592 110.744 222.208C110.616 221.792 110.44 221.456 110.216 221.2C110.024 220.912 109.752 220.672 109.4 220.48C109.016 220.288 108.552 220.192 108.008 220.192C107.624 220.192 107.352 220.288 107.192 220.48C107.032 220.672 106.952 221.008 106.952 221.488C106.952 222.256 107 223.408 107.096 224.944L107.192 228.4C107.192 229.232 107.16 229.984 107.096 230.656L107 232.912L107.336 233.392ZM122.729 250.912C118.985 250.912 117.113 245.024 117.113 233.248V231.568C117.113 222.64 118.265 218.176 120.569 218.176C120.729 218.176 120.953 218.224 121.241 218.32C122.265 218.672 123.273 218.896 124.265 218.992C124.873 219.12 125.481 219.744 126.089 220.864C126.761 222.016 127.257 223.536 127.577 225.424C127.929 227.312 128.105 229.248 128.105 231.232L128.009 231.472C128.009 232.528 128.025 233.472 128.057 234.304L128.105 237.184C128.105 238.816 128.041 240.288 127.913 241.6C127.721 243.584 127.401 245.296 126.953 246.736C126.665 247.6 126.329 248.32 125.945 248.896C125.593 249.472 125.145 249.952 124.601 250.336C124.089 250.72 123.465 250.912 122.729 250.912ZM122.537 249.52C123.785 249.52 124.713 248.64 125.321 246.88C125.929 245.088 126.297 243.264 126.425 241.408C126.553 239.488 126.617 237.952 126.617 236.8C126.617 235.52 126.521 233.632 126.329 231.136C126.169 228.352 126.089 226.464 126.089 225.472L125.897 225.088L125.993 224.848C125.993 223.44 125.593 222.224 124.793 221.2C124.025 220.176 123.081 219.664 121.961 219.664C120.489 219.664 119.609 220.368 119.321 221.776C119.257 222.256 119.193 222.944 119.129 223.84C119.129 226.208 119.033 227.824 118.841 228.688C118.841 229.168 118.793 229.92 118.697 230.944L118.601 233.2C118.601 233.904 118.617 234.528 118.649 235.072L118.697 236.992C118.697 238.496 118.825 240.224 119.081 242.176C119.273 243.616 119.497 244.832 119.753 245.824C120.009 246.816 120.377 247.664 120.857 248.368C121.337 249.136 121.897 249.52 122.537 249.52ZM134.859 250.576C134.507 250.512 134.171 250.368 133.851 250.144C133.531 249.952 133.355 249.712 133.323 249.424L133.563 249.04C133.691 249.04 133.979 249.088 134.427 249.184C134.779 249.312 135.067 249.376 135.291 249.376C135.995 249.376 136.619 249.104 137.163 248.56C137.707 247.984 138.123 247.248 138.411 246.352C138.859 244.688 139.083 243.12 139.083 241.648C139.083 239.44 138.411 237.072 137.067 234.544C136.235 233.072 135.595 231.904 135.147 231.04C134.699 230.176 134.299 229.184 133.947 228.064C133.531 226.752 133.323 225.488 133.323 224.272C133.323 223.12 133.611 221.76 134.187 220.192C134.475 219.456 134.875 218.864 135.387 218.416C135.931 217.936 136.507 217.696 137.115 217.696C137.531 217.696 137.931 217.84 138.315 218.128C138.731 218.416 138.939 218.72 138.939 219.04C138.939 219.296 138.731 219.424 138.315 219.424C138.187 219.424 138.027 219.376 137.835 219.28C137.643 219.184 137.467 219.136 137.307 219.136C136.827 219.136 136.395 219.328 136.011 219.712C135.627 220.096 135.339 220.592 135.147 221.2C134.763 222.384 134.571 223.472 134.571 224.464C134.571 225.072 134.651 225.696 134.811 226.336C134.843 226.528 134.875 226.688 134.907 226.816C134.939 226.944 134.955 227.04 134.955 227.104L135.243 228.064L135.483 228.928L135.867 229.792C135.963 230.016 136.059 230.224 136.155 230.416C136.283 230.576 136.395 230.736 136.491 230.896L137.067 231.904C137.195 232.096 137.467 232.56 137.883 233.296C138.299 234 138.683 234.752 139.035 235.552C139.355 236.224 139.595 236.864 139.755 237.472C139.915 238.048 140.059 238.752 140.187 239.584C140.283 240.384 140.331 241.264 140.331 242.224C140.331 243.76 140.123 245.2 139.707 246.544C139.131 248.144 138.299 249.264 137.211 249.904C136.603 250.288 135.899 250.48 135.099 250.48L134.859 250.576ZM138.699 219.28C138.699 219.248 138.683 219.232 138.651 219.232V219.28H138.699ZM148.736 250C148 250 147.568 249.84 147.44 249.52C147.28 249.52 147.152 249.536 147.056 249.568H146.672C145.968 249.568 145.52 249.408 145.328 249.088C145.328 248.864 145.456 248.672 145.712 248.512L145.952 248.272H147.344L147.536 248.08L147.632 247.648L147.68 247.072C147.68 245.12 147.632 243.376 147.536 241.84L147.44 240.064L147.344 236.56C147.344 235.312 147.392 233.44 147.488 230.944L147.584 225.376C147.584 222.944 147.504 221.088 147.344 219.808C147.056 219.712 146.576 219.664 145.904 219.664L145.376 219.712C145.184 219.744 144.976 219.76 144.752 219.76C144.144 219.76 143.84 219.488 143.84 218.944C143.84 218.816 143.984 218.688 144.271 218.56C144.56 218.432 144.8 218.368 144.992 218.368C146.208 218.368 147.424 218.432 148.64 218.56C149.376 218.592 150.112 218.736 150.848 218.992C151.424 219.184 151.712 219.456 151.712 219.808C151.712 219.872 151.664 220 151.568 220.192L150.464 220.288C150.24 220.096 149.776 220 149.072 220L148.832 220.144C148.928 220.432 148.976 221.28 148.976 222.688C148.976 224.8 148.96 226.704 148.928 228.4L148.832 234.112C148.832 235.552 148.896 237.296 149.023 239.344C149.12 241.68 149.168 243.44 149.168 244.624V245.248C149.136 245.472 149.12 245.76 149.12 246.112C149.12 246.848 149.168 247.296 149.264 247.456L149.216 247.552C149.216 247.872 149.568 248.032 150.272 248.032C150.56 248.032 150.8 248.016 150.992 247.984H151.712C152.64 247.984 153.104 248.208 153.104 248.656C153.104 248.944 153.008 249.184 152.816 249.376C152.624 249.536 152.368 249.616 152.048 249.616C151.76 249.616 151.504 249.584 151.28 249.52C151.024 249.488 150.752 249.472 150.464 249.472C150.272 249.472 149.984 249.552 149.6 249.712C149.216 249.904 148.928 250 148.736 250ZM160.702 249.328L160.654 247.552C160.622 247.04 160.606 246.464 160.606 245.824C160.606 245.504 160.622 245.232 160.654 245.008L160.702 244.144C160.702 243.824 160.638 243.44 160.51 242.992C160.51 240.848 160.35 236.864 160.03 231.04C159.71 225.408 159.534 221.584 159.502 219.568C157.518 219.568 156.19 219.52 155.518 219.424C154.878 219.264 154.558 219.008 154.558 218.656C154.718 218.304 155.022 218.128 155.47 218.128C156.43 218.128 157.822 218.192 159.646 218.32C161.31 218.48 162.702 218.56 163.822 218.56H164.83L165.838 218.512C166.414 218.512 166.702 218.72 166.702 219.136C166.702 219.328 166.59 219.488 166.366 219.616C166.174 219.712 165.934 219.76 165.646 219.76C165.006 219.76 164.334 219.728 163.63 219.664L161.566 219.568C161.438 219.568 161.374 219.616 161.374 219.712C161.342 219.808 161.326 220.112 161.326 220.624C161.326 223.728 161.518 228.432 161.902 234.736C162.254 241.264 162.43 245.952 162.43 248.8C162.43 249.024 162.286 249.232 161.998 249.424C161.742 249.616 161.486 249.712 161.23 249.712L160.702 249.328ZM174.376 250C173.64 250 173.208 249.84 173.08 249.52C172.92 249.52 172.792 249.536 172.696 249.568H172.312C171.608 249.568 171.16 249.408 170.968 249.088C170.968 248.864 171.096 248.672 171.352 248.512L171.592 248.272H172.984L173.176 248.08L173.272 247.648L173.32 247.072C173.32 245.12 173.272 243.376 173.176 241.84L173.08 240.064L172.984 236.56C172.984 235.312 173.032 233.44 173.128 230.944L173.224 225.376C173.224 222.944 173.144 221.088 172.984 219.808C172.696 219.712 172.216 219.664 171.544 219.664L171.016 219.712C170.824 219.744 170.616 219.76 170.392 219.76C169.784 219.76 169.48 219.488 169.48 218.944C169.48 218.816 169.624 218.688 169.912 218.56C170.2 218.432 170.44 218.368 170.632 218.368C171.848 218.368 173.064 218.432 174.28 218.56C175.016 218.592 175.752 218.736 176.488 218.992C177.064 219.184 177.352 219.456 177.352 219.808C177.352 219.872 177.304 220 177.208 220.192L176.104 220.288C175.88 220.096 175.416 220 174.712 220L174.472 220.144C174.568 220.432 174.616 221.28 174.616 222.688C174.616 224.8 174.6 226.704 174.568 228.4L174.472 234.112C174.472 235.552 174.536 237.296 174.664 239.344C174.76 241.68 174.808 243.44 174.808 244.624V245.248C174.776 245.472 174.76 245.76 174.76 246.112C174.76 246.848 174.808 247.296 174.904 247.456L174.856 247.552C174.856 247.872 175.208 248.032 175.912 248.032C176.2 248.032 176.44 248.016 176.632 247.984H177.352C178.28 247.984 178.744 248.208 178.744 248.656C178.744 248.944 178.648 249.184 178.456 249.376C178.264 249.536 178.008 249.616 177.688 249.616C177.4 249.616 177.144 249.584 176.92 249.52C176.664 249.488 176.392 249.472 176.104 249.472C175.912 249.472 175.624 249.552 175.24 249.712C174.856 249.904 174.568 250 174.376 250ZM186.919 250.144C186.919 247.68 186.519 244.048 185.719 239.248C184.951 234.448 183.927 229.2 182.647 223.504L182.263 222.016L181.639 219.808C181.447 219.136 181.351 218.72 181.351 218.56C181.351 218.464 181.415 218.352 181.543 218.224C181.703 218.064 181.847 217.984 181.975 217.984C182.423 217.984 182.775 218.48 183.031 219.472C183.159 219.888 183.271 220.368 183.367 220.912C183.495 221.424 183.591 221.792 183.655 222.016C183.719 222.496 183.767 222.784 183.799 222.88C184.407 225.344 184.775 226.912 184.903 227.584L185.383 230.032L185.815 232.336L186.247 234.784C186.343 235.648 186.471 236.4 186.631 237.04L187.351 241.744C187.351 241.872 187.463 242.688 187.687 244.192L188.023 246.544C188.663 244.464 189.207 241.296 189.655 237.04C190.103 233.072 190.743 229.088 191.575 225.088C192.279 221.632 192.775 219.12 193.063 217.552L193.687 217.312C193.815 217.344 193.927 217.408 194.023 217.504C194.151 217.6 194.215 217.696 194.215 217.792C194.215 218.496 194.071 219.456 193.783 220.672L193.495 221.92L192.679 225.712C192.199 227.792 191.863 229.392 191.671 230.512C191.511 231.632 191.319 233.248 191.095 235.36L190.999 236.464C190.839 238.192 190.711 239.36 190.615 239.968C190.551 240.576 190.375 241.36 190.087 242.32C189.831 243.28 189.623 244.128 189.463 244.864L189.367 245.968C189.303 247.088 189.175 248.08 188.983 248.944C188.727 250.032 188.215 250.576 187.447 250.576L186.919 250.144ZM187.975 246.688L187.927 246.784L187.975 246.88V246.688ZM201.196 250.624C200.62 250.624 200.3 250.288 200.236 249.616V248.992C200.268 248.832 200.284 248.64 200.284 248.416L200.092 248.224C200.348 247.552 200.476 246.896 200.476 246.256C200.476 245.52 200.428 244.464 200.332 243.088L200.236 239.92C200.236 238.32 200.284 235.92 200.38 232.72C200.508 229.872 200.572 227.456 200.572 225.472L200.476 222.592C200.412 221.728 200.38 220.768 200.38 219.712C200.38 219.232 200.492 218.896 200.716 218.704C200.94 218.48 201.292 218.368 201.772 218.368C202.092 218.368 202.348 218.464 202.54 218.656C202.604 218.688 203.068 218.752 203.932 218.848C204.732 218.944 205.42 219.088 205.996 219.28C206.604 219.472 206.908 219.712 206.908 220C206.908 220.32 206.604 220.64 205.996 220.96C204.172 220.352 202.876 220.048 202.108 220.048L201.868 220.336C201.9 220.624 201.916 221.312 201.916 222.4C201.916 223.776 201.884 225.008 201.82 226.096C201.788 227.216 201.772 228.464 201.772 229.84C201.772 230.736 201.996 231.184 202.444 231.184L203.212 231.136C203.468 231.104 203.74 231.088 204.028 231.088C205.276 231.088 205.9 231.376 205.9 231.952C205.9 232.304 205.82 232.608 205.66 232.864C205.5 233.088 205.26 233.2 204.94 233.2C204.46 233.2 204.092 233.072 203.836 232.816L202.3 232.576H202.06L201.82 232.816V232.96C201.884 233.504 201.916 234.768 201.916 236.752C201.916 238 201.9 239.136 201.868 240.16L201.82 243.568C201.82 244.816 201.868 246.096 201.964 247.408C201.996 248.144 202.156 248.64 202.444 248.896C202.732 249.12 203.26 249.232 204.028 249.232L204.892 249.184C205.18 249.152 205.5 249.136 205.852 249.136C206.78 249.136 207.244 249.344 207.244 249.76C207.244 250.336 206.54 250.624 205.132 250.624H201.196Z" fill="#525252"/>
<rect x="72.5" y="54" width="3" height="7" rx="1" fill="#525252"/>
<path d="M67.7912 58.3386C67.1841 57.9443 67.1841 57.0557 67.7912 56.6614L70.9553 54.6062C71.6206 54.1741 72.5 54.6515 72.5 55.4448V59.5552C72.5 60.3485 71.6206 60.8259 70.9553 60.3938L67.7912 58.3386Z" fill="#525252"/>
<rect width="3" height="7" rx="1" transform="matrix(-1 0 0 1 226.5 54)" fill="#525252"/>
<path d="M231.209 58.3386C231.816 57.9443 231.816 57.0557 231.209 56.6614L228.045 54.6062C227.379 54.1741 226.5 54.6515 226.5 55.4448V59.5552C226.5 60.3485 227.379 60.8259 228.045 60.3938L231.209 58.3386Z" fill="#525252"/>
</svg>
