<svg width="194" height="200" viewBox="0 0 194 200" fill="none" xmlns="http://www.w3.org/2000/svg">
<line x1="37" y1="23.5" x2="15" y2="23.5" stroke="#525252"/>
<line x1="37" y1="30.5" x2="8" y2="30.5" stroke="#525252"/>
<line x1="36.5" y1="29.5" x2="36.5" y2="24.5" stroke="#525252"/>
<line x1="38" y1="23.5" x2="55" y2="23.5" stroke="#525252"/>
<line y1="-0.5" x2="18" y2="-0.5" transform="matrix(1 -1.40848e-07 -5.42624e-08 -1 38 30)" stroke="#525252"/>
<line y1="-0.5" x2="5" y2="-0.5" transform="matrix(0 -1 -1 0 38 29.5)" stroke="#525252"/>
<line x1="30" y1="32.5" x2="55" y2="32.5" stroke="#525252"/>
<line y1="-0.5" x2="24" y2="-0.5" transform="matrix(1 -1.05636e-07 -7.23499e-08 -1 30 39)" stroke="#525252"/>
<line y1="-0.5" x2="5" y2="-0.5" transform="matrix(0 -1 -1 0 30 38.5)" stroke="#525252"/>
<line x1="29" y1="32.5" x2="7" y2="32.5" stroke="#525252"/>
<line x1="29" y1="39.5" x2="-4.37114e-08" y2="39.5" stroke="#525252"/>
<line x1="28.5" y1="38.5" x2="28.5" y2="33.5" stroke="#525252"/>
<line y1="-0.5" x2="29.8571" y2="-0.5" transform="matrix(1 -6.44168e-08 -1.18645e-07 -1 36.7857 41)" stroke="#525252"/>
<line y1="-0.5" x2="39.3571" y2="-0.5" transform="matrix(1 -6.44168e-08 -1.18645e-07 -1 36.7857 48)" stroke="#525252"/>
<line y1="-0.5" x2="5" y2="-0.5" transform="matrix(0 -1 -1 0 36.7857 47.5)" stroke="#525252"/>
<line y1="-0.5" x2="23.0714" y2="-0.5" transform="matrix(-1 0 0 1 35.4286 42)" stroke="#525252"/>
<line x1="35.4286" y1="48.5" x2="11" y2="48.5" stroke="#525252"/>
<line x1="34.9286" y1="47.5" x2="34.9286" y2="42.5" stroke="#525252"/>
<line y1="-0.5" x2="33.9286" y2="-0.5" transform="matrix(-1 0 0 1 46.2858 51)" stroke="#525252"/>
<line x1="46.2858" y1="57.5" x2="13.7143" y2="57.5" stroke="#525252"/>
<line x1="45.7858" y1="56.5" x2="45.7858" y2="51.5" stroke="#525252"/>
<line x1="154" y1="106.5" x2="132" y2="106.5" stroke="#525252"/>
<line x1="154" y1="113.5" x2="125" y2="113.5" stroke="#525252"/>
<line x1="153.5" y1="112.5" x2="153.5" y2="107.5" stroke="#525252"/>
<line x1="155" y1="106.5" x2="172" y2="106.5" stroke="#525252"/>
<line y1="-0.5" x2="18" y2="-0.5" transform="matrix(1 -1.40848e-07 -5.42624e-08 -1 155 113)" stroke="#525252"/>
<line y1="-0.5" x2="5" y2="-0.5" transform="matrix(0 -1 -1 0 155 112.5)" stroke="#525252"/>
<line x1="147" y1="115.5" x2="172" y2="115.5" stroke="#525252"/>
<line y1="-0.5" x2="24" y2="-0.5" transform="matrix(1 -1.05636e-07 -7.23499e-08 -1 147 122)" stroke="#525252"/>
<line y1="-0.5" x2="5" y2="-0.5" transform="matrix(0 -1 -1 0 147 121.5)" stroke="#525252"/>
<line x1="146" y1="115.5" x2="124" y2="115.5" stroke="#525252"/>
<line x1="146" y1="122.5" x2="117" y2="122.5" stroke="#525252"/>
<line x1="145.5" y1="121.5" x2="145.5" y2="116.5" stroke="#525252"/>
<line y1="-0.5" x2="29.8571" y2="-0.5" transform="matrix(1 -6.44168e-08 -1.18645e-07 -1 153.786 124)" stroke="#525252"/>
<line y1="-0.5" x2="39.3571" y2="-0.5" transform="matrix(1 -6.44168e-08 -1.18645e-07 -1 153.786 131)" stroke="#525252"/>
<line y1="-0.5" x2="5" y2="-0.5" transform="matrix(0 -1 -1 0 153.786 130.5)" stroke="#525252"/>
<line y1="-0.5" x2="23.0714" y2="-0.5" transform="matrix(-1 0 0 1 152.429 125)" stroke="#525252"/>
<line x1="152.429" y1="131.5" x2="128" y2="131.5" stroke="#525252"/>
<line x1="151.929" y1="130.5" x2="151.929" y2="125.5" stroke="#525252"/>
<line y1="-0.5" x2="33.9286" y2="-0.5" transform="matrix(-1 0 0 1 163.286 134)" stroke="#525252"/>
<line x1="163.286" y1="140.5" x2="130.714" y2="140.5" stroke="#525252"/>
<line x1="162.786" y1="139.5" x2="162.786" y2="134.5" stroke="#525252"/>
<line y1="-0.5" x2="29.182" y2="-0.5" transform="matrix(1 -6.59071e-08 -1.15962e-07 -1 143.921 69)" stroke="#525252"/>
<line y1="-0.5" x2="38.4672" y2="-0.5" transform="matrix(1 -6.59071e-08 -1.15962e-07 -1 143.921 76)" stroke="#525252"/>
<line y1="-0.5" x2="5" y2="-0.5" transform="matrix(0 -1 -1 0 143.921 75.5)" stroke="#525252"/>
<line y1="-0.5" x2="22.5497" y2="-0.5" transform="matrix(-1 0 0 1 142.595 70)" stroke="#525252"/>
<line x1="142.595" y1="76.5" x2="118.719" y2="76.5" stroke="#525252"/>
<line x1="142.095" y1="75.5" x2="142.095" y2="70.5" stroke="#525252"/>
<line y1="-0.5" x2="33.1614" y2="-0.5" transform="matrix(-1 0 0 1 153.206 79)" stroke="#525252"/>
<line x1="153.206" y1="85.5" x2="121.371" y2="85.5" stroke="#525252"/>
<line x1="152.706" y1="84.5" x2="152.706" y2="79.5" stroke="#525252"/>
<line y1="-0.5" x2="29.182" y2="-0.5" transform="matrix(1 -6.59071e-08 -1.15962e-07 -1 154.533 78)" stroke="#525252"/>
<line y1="-0.5" x2="38.4672" y2="-0.5" transform="matrix(1 -6.59071e-08 -1.15962e-07 -1 154.533 85)" stroke="#525252"/>
<line y1="-0.5" x2="5" y2="-0.5" transform="matrix(0 -1 -1 0 154.533 84.5)" stroke="#525252"/>
<line x1="144.205" y1="87.5" x2="104.601" y2="87.5" stroke="#525252"/>
<line x1="144.205" y1="94.5" x2="92" y2="94.5" stroke="#525252"/>
<line x1="143.705" y1="93.5" x2="143.705" y2="88.5" stroke="#525252"/>
<line x1="146.006" y1="87.5" x2="176.609" y2="87.5" stroke="#525252"/>
<line y1="-0.5" x2="32.4034" y2="-0.5" transform="matrix(1 -7.82406e-08 -9.76825e-08 -1 146.006 94)" stroke="#525252"/>
<line y1="-0.5" x2="5" y2="-0.5" transform="matrix(0 -1 -1 0 146.006 93.5)" stroke="#525252"/>
<line x1="131.604" y1="96.5" x2="176.609" y2="96.5" stroke="#525252"/>
<line y1="-0.5" x2="43.2045" y2="-0.5" transform="matrix(1 -5.86805e-08 -1.30243e-07 -1 131.604 103)" stroke="#525252"/>
<line y1="-0.5" x2="5" y2="-0.5" transform="matrix(0 -1 -1 0 131.604 102.5)" stroke="#525252"/>
<line x1="55" y1="59.5" x2="33" y2="59.5" stroke="#525252"/>
<line x1="55" y1="66.5" x2="26" y2="66.5" stroke="#525252"/>
<line x1="54.5" y1="65.5" x2="54.5" y2="60.5" stroke="#525252"/>
<line x1="56" y1="59.5" x2="73" y2="59.5" stroke="#783434"/>
<line y1="-0.5" x2="18" y2="-0.5" transform="matrix(1 -1.40848e-07 -5.42624e-08 -1 56 66)" stroke="#783434"/>
<line y1="-0.5" x2="5" y2="-0.5" transform="matrix(0 -1 -1 0 56 65.5)" stroke="#783434"/>
<line x1="48" y1="68.5" x2="73" y2="68.5" stroke="#525252"/>
<line y1="-0.5" x2="24" y2="-0.5" transform="matrix(1 -1.05636e-07 -7.23499e-08 -1 48 75)" stroke="#525252"/>
<line y1="-0.5" x2="5" y2="-0.5" transform="matrix(0 -1 -1 0 48 74.5)" stroke="#525252"/>
<line x1="47" y1="68.5" x2="25" y2="68.5" stroke="#525252"/>
<line x1="47" y1="75.5" x2="18" y2="75.5" stroke="#525252"/>
<line x1="46.5" y1="74.5" x2="46.5" y2="69.5" stroke="#525252"/>
<line y1="-0.5" x2="29.8571" y2="-0.5" transform="matrix(1 -6.44168e-08 -1.18645e-07 -1 54.7857 77)" stroke="#783434"/>
<line y1="-0.5" x2="39.3571" y2="-0.5" transform="matrix(1 -6.44168e-08 -1.18645e-07 -1 54.7857 84)" stroke="#783434"/>
<line y1="-0.5" x2="5" y2="-0.5" transform="matrix(0 -1 -1 0 54.7857 83.5)" stroke="#783434"/>
<line y1="-0.5" x2="23.0714" y2="-0.5" transform="matrix(-1 0 0 1 53.4286 78)" stroke="#525252"/>
<line x1="53.4286" y1="84.5" x2="29" y2="84.5" stroke="#525252"/>
<line x1="52.9286" y1="83.5" x2="52.9286" y2="78.5" stroke="#525252"/>
<line y1="-0.5" x2="33.9286" y2="-0.5" transform="matrix(-1 0 0 1 64.2858 87)" stroke="#525252"/>
<line x1="64.2858" y1="93.5" x2="31.7143" y2="93.5" stroke="#525252"/>
<line x1="63.7858" y1="92.5" x2="63.7858" y2="87.5" stroke="#525252"/>
<line x1="55" y1="59.5" x2="33" y2="59.5" stroke="#525252"/>
<line x1="55" y1="66.5" x2="26" y2="66.5" stroke="#525252"/>
<line x1="54.5" y1="65.5" x2="54.5" y2="60.5" stroke="#525252"/>
<line x1="47" y1="68.5" x2="25" y2="68.5" stroke="#525252"/>
<line x1="47" y1="75.5" x2="18" y2="75.5" stroke="#525252"/>
<line x1="46.5" y1="74.5" x2="46.5" y2="69.5" stroke="#525252"/>
<line y1="-0.5" x2="23.0714" y2="-0.5" transform="matrix(-1 0 0 1 53.4286 78)" stroke="#525252"/>
<line x1="53.4286" y1="84.5" x2="29" y2="84.5" stroke="#525252"/>
<line x1="52.9286" y1="83.5" x2="52.9286" y2="78.5" stroke="#525252"/>
<line y1="-0.5" x2="33.9286" y2="-0.5" transform="matrix(-1 0 0 1 64.2858 87)" stroke="#525252"/>
<line x1="64.2858" y1="93.5" x2="31.7143" y2="93.5" stroke="#525252"/>
<line x1="63.7858" y1="92.5" x2="63.7858" y2="87.5" stroke="#525252"/>
<line y1="-0.5" x2="29.8571" y2="-0.5" transform="matrix(1 -6.44168e-08 -1.18645e-07 -1 47.6429 50)" stroke="#525252"/>
<line y1="-0.5" x2="39.3571" y2="-0.5" transform="matrix(1 -6.44168e-08 -1.18645e-07 -1 47.6429 57)" stroke="#525252"/>
<line y1="-0.5" x2="5" y2="-0.5" transform="matrix(0 -1 -1 0 47.6429 56.5)" stroke="#525252"/>
<rect x="23" y="2" width="31" height="5" rx="1" fill="#525252"/>
<rect x="139" y="2" width="31" height="5" rx="1" fill="#525252"/>
<path d="M55 2C55 1.44772 55.4477 1 56 1H137C137.552 1 138 1.44772 138 2V141.575C138 141.981 137.755 142.347 137.379 142.501L97.4345 158.847C97.1948 158.945 96.9263 158.946 96.6857 158.851L55.63 142.497C55.2496 142.346 55 141.978 55 141.568V2Z" fill="#525252"/>
<path d="M114.844 60.5156C115.104 61.8698 115.417 63.0938 115.781 64.1875C116.146 65.2812 116.38 66.4792 116.484 67.7812C116.484 68.0938 116.458 68.4062 116.406 68.7188C116.406 69.0312 116.432 69.3438 116.484 69.6562V70.5938C116.484 71.0104 116.432 71.401 116.328 71.7656C116.276 72.1302 116.25 72.5208 116.25 72.9375C116.198 73.875 116.042 74.7865 115.781 75.6719C115.729 76.2448 115.677 76.5312 115.625 76.5312C115.573 76.4792 115.547 76.5052 115.547 76.6094C115.443 77.1823 115.365 77.7292 115.312 78.25C115.26 78.7708 115.182 79.3177 115.078 79.8906C116.016 79.9948 117.083 80.125 118.281 80.2812C119.531 80.3854 120.703 80.3854 121.797 80.2812C122.057 80.2292 122.292 80.151 122.5 80.0469C122.76 79.9427 123.021 79.8385 123.281 79.7344C124.167 79.6302 124.87 79.4219 125.391 79.1094C125.911 78.7969 126.536 78.5365 127.266 78.3281C127.057 78.901 126.797 79.2396 126.484 79.3438C126.328 79.8646 126.172 80.2292 126.016 80.4375C125.911 80.5938 125.781 80.724 125.625 80.8281C125.365 81.0365 125.13 81.2188 124.922 81.375C124.714 81.4792 124.479 81.6354 124.219 81.8438C123.385 82.3125 122.708 82.5729 122.188 82.625C121.719 82.625 121.276 82.7031 120.859 82.8594C120.495 82.8073 120.052 82.7552 119.531 82.7031C119.062 82.651 118.646 82.651 118.281 82.7031C118.021 82.5469 117.734 82.4688 117.422 82.4688C117.109 82.4688 116.797 82.5208 116.484 82.625C115.859 82.8333 115.443 82.9896 115.234 83.0938C115.026 83.1458 114.818 83.224 114.609 83.3281C114.505 83.6406 114.427 83.875 114.375 84.0312C114.375 84.1875 114.349 84.3177 114.297 84.4219C114.245 84.9948 114.193 85.5677 114.141 86.1406C114.141 86.6615 114.062 87.2083 113.906 87.7812C113.698 88.25 113.594 88.5625 113.594 88.7188C113.594 88.8229 113.542 88.9792 113.438 89.1875C113.281 89.4479 113.151 89.7604 113.047 90.125C112.943 90.4896 112.839 90.8542 112.734 91.2188C112.474 91.4792 112.318 91.7917 112.266 92.1562C112.214 92.5208 112.161 92.9115 112.109 93.3281C112.057 93.7448 111.927 94.1615 111.719 94.5781C111.51 94.9427 111.302 95.3073 111.094 95.6719C110.99 95.9323 110.885 96.1927 110.781 96.4531C110.677 96.6615 110.547 96.8958 110.391 97.1562C109.766 97.9375 109.167 98.7708 108.594 99.6562C108.333 100.229 108.047 100.75 107.734 101.219C107.474 101.635 107.214 102.104 106.953 102.625C106.536 103.354 106.016 104.005 105.391 104.578C104.766 105.099 104.141 105.646 103.516 106.219C103.203 106.479 102.891 106.766 102.578 107.078C102.266 107.391 101.979 107.677 101.719 107.938C101.458 108.198 101.172 108.484 100.859 108.797C100.599 109.057 100.339 109.318 100.078 109.578C99.7135 109.839 99.3229 110.125 98.9062 110.438C98.5417 110.698 98.151 110.958 97.7344 111.219C96.901 111.688 96.0677 112.13 95.2344 112.547C94.4531 112.964 93.6198 113.432 92.7344 113.953C92.3177 114.214 91.9271 114.448 91.5625 114.656C91.1979 114.917 90.8073 115.125 90.3906 115.281C90.0781 115.385 89.7396 115.438 89.375 115.438C89.0625 115.49 88.75 115.542 88.4375 115.594C88.0208 115.698 87.6302 115.776 87.2656 115.828C86.901 115.932 86.4844 115.984 86.0156 115.984C85.4427 115.932 84.7917 115.802 84.0625 115.594C83.3854 115.438 82.8646 115.229 82.5 114.969C81.8229 114.344 81.4062 113.901 81.25 113.641C81.1458 113.38 80.9635 113.12 80.7031 112.859C80.651 112.651 80.5729 112.495 80.4688 112.391C80.4167 112.339 80.3906 112.208 80.3906 112C80.026 111.479 79.7396 110.958 79.5312 110.438C79.0625 109.448 78.724 108.589 78.5156 107.859C78.3594 107.078 78.3333 106.271 78.4375 105.438C78.3333 104.604 78.2812 103.667 78.2812 102.625C78.2812 101.531 78.2812 100.49 78.2812 99.5C78.2812 99.1354 78.2552 98.7969 78.2031 98.4844C78.2031 98.1198 78.2552 97.8073 78.3594 97.5469C78.3073 97.1302 78.2552 96.7396 78.2031 96.375C78.2031 95.9583 78.2552 95.5938 78.3594 95.2812C78.4115 94.7604 78.4375 94.3698 78.4375 94.1094C78.4896 93.849 78.5677 93.5885 78.6719 93.3281C78.9323 93.0677 79.0365 92.8073 78.9844 92.5469C78.9844 92.2865 79.0365 92.026 79.1406 91.7656C79.349 90.3594 79.6875 89.1094 80.1562 88.0156C80.3125 87.599 80.4688 87.2083 80.625 86.8438C80.7812 86.4271 80.9115 86.0104 81.0156 85.5938C81.3281 84.7083 81.6667 83.901 82.0312 83.1719C82.4479 82.4427 82.8385 81.6615 83.2031 80.8281C83.9323 79.3177 84.6875 77.9375 85.4688 76.6875C86.3021 75.3854 87.1354 74.0573 87.9688 72.7031C88.2292 72.5469 88.4115 72.3385 88.5156 72.0781C88.6198 71.7656 88.776 71.5312 88.9844 71.375C89.401 70.4896 89.8958 69.7344 90.4688 69.1094C91.0417 68.4844 91.6146 67.8594 92.1875 67.2344C92.4479 67.026 92.6823 66.8177 92.8906 66.6094C93.099 66.349 93.3333 66.0885 93.5938 65.8281C93.75 65.6719 93.9062 65.5417 94.0625 65.4375C94.2708 65.2812 94.4271 65.099 94.5312 64.8906C94.7396 64.7865 94.9219 64.6562 95.0781 64.5C95.2865 64.3438 95.4688 64.1875 95.625 64.0312C95.8333 63.875 96.0417 63.7188 96.25 63.5625C96.4583 63.4062 96.6667 63.25 96.875 63.0938C97.2917 62.7812 97.6562 62.4688 97.9688 62.1562C98.3333 61.7917 98.724 61.4792 99.1406 61.2188C99.5573 61.1667 99.8177 61.1406 99.9219 61.1406C100.026 61.1406 100.078 61.0625 100.078 60.9062C100.703 60.3854 101.094 60.0208 101.25 59.8125C101.458 59.5521 101.641 59.2917 101.797 59.0312C102.214 58.7708 102.578 58.4844 102.891 58.1719C103.203 57.8073 103.568 57.4948 103.984 57.2344C104.297 56.8698 104.505 56.6354 104.609 56.5312C104.766 56.4271 104.922 56.3229 105.078 56.2188C105.182 56.0625 105.286 55.9583 105.391 55.9062C105.547 55.8021 105.651 55.6979 105.703 55.5938C105.964 55.4896 106.198 55.3854 106.406 55.2812C106.615 55.125 106.875 54.9948 107.188 54.8906C107.552 54.9427 107.839 54.9427 108.047 54.8906C108.307 54.8385 108.542 54.8385 108.75 54.8906C109.062 54.9427 109.297 55.0729 109.453 55.2812C109.661 55.4375 109.896 55.6198 110.156 55.8281C110.781 55.9323 111.25 56.2708 111.562 56.8438C111.927 57.3646 112.318 57.7552 112.734 58.0156C112.995 58.4323 113.281 58.849 113.594 59.2656C113.958 59.6302 114.271 60.0469 114.531 60.5156H114.844ZM108.75 75.4375C109.01 75.8021 109.323 76.1406 109.688 76.4531C110.052 76.7135 110.417 76.974 110.781 77.2344C110.781 75.8802 110.833 74.4219 110.938 72.8594C111.094 71.2448 111.12 69.7604 111.016 68.4062C110.859 67.8333 110.677 67.2865 110.469 66.7656C110.312 66.2448 110.182 65.6719 110.078 65.0469C109.87 64.8385 109.714 64.6302 109.609 64.4219C109.557 64.2135 109.479 64.0052 109.375 63.7969C109.115 63.4844 108.984 63.3021 108.984 63.25C108.984 63.1458 108.932 63.0417 108.828 62.9375C108.724 62.8333 108.594 62.7292 108.438 62.625C108.333 62.5208 108.229 62.3906 108.125 62.2344C107.5 62.1823 106.979 62.3125 106.562 62.625C106.198 62.8854 105.833 63.1458 105.469 63.4062C105.365 64.1354 105.339 64.8125 105.391 65.4375C105.443 66.0625 105.521 66.6615 105.625 67.2344C105.781 68.224 105.938 69.2135 106.094 70.2031C106.25 71.1927 106.51 72.0521 106.875 72.7812C106.927 73.1458 107.135 73.5885 107.5 74.1094C107.865 74.5781 108.281 75.0208 108.75 75.4375ZM98.2812 68.6406C98.0208 68.901 97.7604 69.1354 97.5 69.3438C97.2396 69.5521 97.0052 69.8125 96.7969 70.125C96.4844 70.3854 96.224 70.6458 96.0156 70.9062C95.8073 71.1667 95.5729 71.4271 95.3125 71.6875C95.0521 71.9479 94.8177 72.2083 94.6094 72.4688C94.401 72.6771 94.1927 72.9375 93.9844 73.25C93.8281 73.3542 93.6979 73.4844 93.5938 73.6406C93.4896 73.7969 93.3594 73.9531 93.2031 74.1094C92.6823 74.7865 92.3177 75.2552 92.1094 75.5156C91.901 75.776 91.7448 76.0365 91.6406 76.2969C91.3281 76.5052 91.0677 76.7917 90.8594 77.1562C90.7031 77.4688 90.5469 77.8073 90.3906 78.1719C90.0781 78.5885 89.7917 79.0312 89.5312 79.5C89.2708 79.9688 89.0365 80.4375 88.8281 80.9062C88.4115 81.6354 88.151 82.1302 88.0469 82.3906C87.9948 82.651 87.9167 82.9115 87.8125 83.1719C87.6042 83.4844 87.4219 83.901 87.2656 84.4219C86.3802 86.2969 85.599 88.4323 84.9219 90.8281C84.8177 91.2969 84.6615 91.7396 84.4531 92.1562C84.2969 92.5729 84.1927 92.9896 84.1406 93.4062C84.0885 93.6146 84.0625 93.8229 84.0625 94.0312C84.1146 94.2396 84.1406 94.4479 84.1406 94.6562C84.0885 95.1771 84.0365 95.6979 83.9844 96.2188C83.9323 96.6875 83.9062 97.2083 83.9062 97.7812C83.9062 98.8229 83.9062 99.7865 83.9062 100.672C83.9062 101.557 83.9583 102.469 84.0625 103.406C84.0625 104.083 84.1146 104.63 84.2188 105.047C84.3229 105.255 84.5052 105.464 84.7656 105.672C85.026 105.88 85.2604 106.062 85.4688 106.219C85.8854 106.635 86.3021 107.078 86.7188 107.547C87.1354 107.964 87.7083 108.042 88.4375 107.781C88.6979 107.938 88.9844 107.938 89.2969 107.781C89.6094 107.625 89.9219 107.599 90.2344 107.703C90.4948 107.599 90.7552 107.547 91.0156 107.547C91.276 107.495 91.5365 107.417 91.7969 107.312C92.2135 107.208 92.6042 107.104 92.9688 107C93.3854 106.844 93.776 106.714 94.1406 106.609C94.5573 106.453 94.974 106.323 95.3906 106.219C95.8073 106.062 96.1979 105.88 96.5625 105.672C97.6042 104.786 98.3594 104.083 98.8281 103.562C99.1927 103.198 99.5573 102.885 99.9219 102.625C100.286 102.312 100.625 102 100.938 101.688C101.198 101.427 101.458 101.167 101.719 100.906C101.979 100.594 102.214 100.229 102.422 99.8125C102.578 99.6562 102.708 99.5 102.812 99.3438C102.969 99.1354 103.099 98.9271 103.203 98.7188C103.464 98.4062 103.646 98.0677 103.75 97.7031C103.906 97.3385 104.115 96.974 104.375 96.6094C104.688 95.724 105.052 94.8906 105.469 94.1094C105.885 93.3281 106.224 92.5208 106.484 91.6875C106.953 90.6979 107.344 89.8385 107.656 89.1094C108.021 88.3281 108.281 87.5469 108.438 86.7656C108.594 86.6094 108.672 86.4271 108.672 86.2188C108.724 85.9583 108.802 85.75 108.906 85.5938C109.167 84.8646 109.375 84.1615 109.531 83.4844C109.74 82.8073 109.948 82.0521 110.156 81.2188C109.948 81.1146 109.766 81.0885 109.609 81.1406C109.453 81.1406 109.297 81.0885 109.141 80.9844C108.724 80.8281 108.333 80.5677 107.969 80.2031C107.656 79.7865 107.292 79.5521 106.875 79.5C106.667 79.3438 106.484 79.2135 106.328 79.1094C106.224 79.0052 106.068 78.901 105.859 78.7969C105.026 77.9115 104.219 77 103.438 76.0625C102.708 75.0729 102.109 73.9792 101.641 72.7812C101.172 71.7396 100.807 70.776 100.547 69.8906C100.286 68.9531 100.052 67.9635 99.8438 66.9219C99.5312 67.2344 99.2448 67.5208 98.9844 67.7812C98.776 68.0417 98.5417 68.3281 98.2812 68.6406Z" fill="white"/>
<path d="M46.6 199.008C42.152 199.008 39.928 191.312 39.928 175.92V174C39.928 171.312 40.088 168.976 40.408 166.992C40.6 165.744 40.856 164.72 41.176 163.92C41.528 163.12 41.992 162.48 42.568 162C43.112 161.456 43.816 161.184 44.68 161.184C45.448 161.184 46.152 161.344 46.792 161.664C47.432 161.952 47.96 162.336 48.376 162.816C48.728 163.264 49.048 163.856 49.336 164.592C49.624 165.328 49.848 166.032 50.008 166.704L50.392 168.96C51.16 174.432 51.544 179.28 51.544 183.504V183.648C51.544 185.248 51.512 186.72 51.448 188.064C51.384 189.664 51.208 191.344 50.92 193.104C50.792 193.968 50.6 194.72 50.344 195.36C50.12 196 49.816 196.64 49.432 197.28C48.76 198.432 47.816 199.008 46.6 199.008ZM46.696 197.664C47.208 197.664 47.672 197.376 48.088 196.8C48.504 196.192 48.824 195.36 49.048 194.304C49.56 192.064 49.88 189.872 50.008 187.728C50.072 186 50.104 184.32 50.104 182.688V182.496L50.056 177.696C49.992 175.968 49.8 173.728 49.48 170.976C49.224 169.024 48.696 167.024 47.896 164.976C47.576 164.176 47.144 163.552 46.6 163.104C46.088 162.656 45.528 162.432 44.92 162.432C44.376 162.432 43.896 162.688 43.48 163.2C43.064 163.712 42.728 164.432 42.472 165.36C41.896 167.504 41.576 169.488 41.512 171.312C41.416 172.88 41.368 174.496 41.368 176.16V178.512C41.368 180.656 41.576 183.376 41.992 186.672C42.248 188.752 42.568 190.56 42.952 192.096C43.336 193.632 43.848 194.928 44.488 195.984C45.128 197.104 45.864 197.664 46.696 197.664ZM58.7999 198.576C58.4479 196.56 58.2719 194.256 58.2719 191.664C58.2719 190.64 58.3199 189.152 58.4159 187.2L58.5119 182.736C58.2879 182.288 58.1759 181.92 58.1759 181.632C58.4959 181.12 58.6559 179.648 58.6559 177.216C58.6559 171.392 58.5759 168.288 58.4159 167.904C58.7039 167.104 58.9279 166.704 59.0879 166.704H61.1999C61.5519 166.704 62.0479 166.88 62.6879 167.232C63.3599 167.552 63.9199 167.904 64.3679 168.288C65.1679 169.024 65.5679 170.912 65.5679 173.952C65.5679 175.584 65.5199 176.832 65.4239 177.696C65.3599 178.304 65.2479 178.784 65.0879 179.136C64.9599 179.488 64.7519 179.888 64.4639 180.336C63.9839 181.072 63.1679 181.712 62.0159 182.256C61.5359 182.512 60.8639 182.768 59.9999 183.024V188.736C59.9999 189.536 60.0799 191.104 60.2399 193.44L60.3359 194.976L60.4319 198.096C60.4319 198.672 60.1279 198.96 59.5199 198.96L58.7999 198.576ZM60.3359 181.392C61.2639 181.392 62.0479 180.96 62.6879 180.096C62.9119 179.776 63.1199 179.344 63.3119 178.8C63.5039 178.256 63.6319 177.728 63.6959 177.216C63.8879 176.288 63.9839 175.216 63.9839 174V172.704C63.9839 172.256 63.9679 171.824 63.9359 171.408C63.9039 170.992 63.8399 170.592 63.7439 170.208C63.6159 169.792 63.4399 169.456 63.2159 169.2C63.0239 168.912 62.7519 168.672 62.3999 168.48C62.0159 168.288 61.5519 168.192 61.0079 168.192C60.6239 168.192 60.3519 168.288 60.1919 168.48C60.0319 168.672 59.9519 169.008 59.9519 169.488C59.9519 170.256 59.9999 171.408 60.0959 172.944L60.1919 176.4C60.1919 177.232 60.1599 177.984 60.0959 178.656L59.9999 180.912L60.3359 181.392ZM75.7293 198.912C71.9853 198.912 70.1133 193.024 70.1133 181.248V179.568C70.1133 170.64 71.2653 166.176 73.5693 166.176C73.7293 166.176 73.9533 166.224 74.2413 166.32C75.2653 166.672 76.2733 166.896 77.2653 166.992C77.8733 167.12 78.4813 167.744 79.0893 168.864C79.7613 170.016 80.2573 171.536 80.5773 173.424C80.9293 175.312 81.1053 177.248 81.1053 179.232L81.0093 179.472C81.0093 180.528 81.0253 181.472 81.0573 182.304L81.1053 185.184C81.1053 186.816 81.0413 188.288 80.9133 189.6C80.7213 191.584 80.4013 193.296 79.9532 194.736C79.6653 195.6 79.3293 196.32 78.9453 196.896C78.5933 197.472 78.1453 197.952 77.6013 198.336C77.0893 198.72 76.4653 198.912 75.7293 198.912ZM75.5373 197.52C76.7853 197.52 77.7133 196.64 78.3213 194.88C78.9293 193.088 79.2973 191.264 79.4253 189.408C79.5533 187.488 79.6172 185.952 79.6172 184.8C79.6172 183.52 79.5213 181.632 79.3293 179.136C79.1693 176.352 79.0893 174.464 79.0893 173.472L78.8973 173.088L78.9933 172.848C78.9933 171.44 78.5933 170.224 77.7933 169.2C77.0253 168.176 76.0813 167.664 74.9613 167.664C73.4893 167.664 72.6093 168.368 72.3213 169.776C72.2573 170.256 72.1933 170.944 72.1293 171.84C72.1293 174.208 72.0333 175.824 71.8413 176.688C71.8413 177.168 71.7933 177.92 71.6973 178.944L71.6013 181.2C71.6013 181.904 71.6173 182.528 71.6493 183.072L71.6973 184.992C71.6973 186.496 71.8253 188.224 72.0813 190.176C72.2733 191.616 72.4973 192.832 72.7533 193.824C73.0093 194.816 73.3773 195.664 73.8573 196.368C74.3373 197.136 74.8973 197.52 75.5373 197.52ZM87.859 198.576C87.507 198.512 87.171 198.368 86.851 198.144C86.531 197.952 86.355 197.712 86.323 197.424L86.563 197.04C86.691 197.04 86.979 197.088 87.427 197.184C87.779 197.312 88.067 197.376 88.291 197.376C88.995 197.376 89.619 197.104 90.163 196.56C90.707 195.984 91.123 195.248 91.411 194.352C91.859 192.688 92.083 191.12 92.083 189.648C92.083 187.44 91.411 185.072 90.067 182.544C89.235 181.072 88.595 179.904 88.147 179.04C87.699 178.176 87.299 177.184 86.947 176.064C86.531 174.752 86.323 173.488 86.323 172.272C86.323 171.12 86.611 169.76 87.187 168.192C87.475 167.456 87.875 166.864 88.387 166.416C88.931 165.936 89.507 165.696 90.115 165.696C90.531 165.696 90.931 165.84 91.315 166.128C91.731 166.416 91.939 166.72 91.939 167.04C91.939 167.296 91.731 167.424 91.315 167.424C91.187 167.424 91.027 167.376 90.835 167.28C90.643 167.184 90.467 167.136 90.307 167.136C89.827 167.136 89.395 167.328 89.011 167.712C88.627 168.096 88.339 168.592 88.147 169.2C87.763 170.384 87.571 171.472 87.571 172.464C87.571 173.072 87.651 173.696 87.811 174.336C87.843 174.528 87.875 174.688 87.907 174.816C87.939 174.944 87.955 175.04 87.955 175.104L88.243 176.064L88.483 176.928L88.867 177.792C88.963 178.016 89.059 178.224 89.155 178.416C89.283 178.576 89.395 178.736 89.491 178.896L90.067 179.904C90.195 180.096 90.467 180.56 90.883 181.296C91.299 182 91.683 182.752 92.035 183.552C92.355 184.224 92.595 184.864 92.755 185.472C92.915 186.048 93.059 186.752 93.187 187.584C93.283 188.384 93.331 189.264 93.331 190.224C93.331 191.76 93.123 193.2 92.707 194.544C92.131 196.144 91.299 197.264 90.211 197.904C89.603 198.288 88.899 198.48 88.099 198.48L87.859 198.576ZM91.699 167.28C91.699 167.248 91.683 167.232 91.651 167.232V167.28H91.699ZM101.736 198C101 198 100.568 197.84 100.44 197.52C100.28 197.52 100.152 197.536 100.056 197.568H99.6715C98.9675 197.568 98.5195 197.408 98.3275 197.088C98.3275 196.864 98.4555 196.672 98.7115 196.512L98.9515 196.272H100.344L100.536 196.08L100.632 195.648L100.68 195.072C100.68 193.12 100.632 191.376 100.536 189.84L100.44 188.064L100.344 184.56C100.344 183.312 100.392 181.44 100.488 178.944L100.584 173.376C100.584 170.944 100.504 169.088 100.344 167.808C100.056 167.712 99.5755 167.664 98.9035 167.664L98.3755 167.712C98.1835 167.744 97.9755 167.76 97.7515 167.76C97.1435 167.76 96.8395 167.488 96.8395 166.944C96.8395 166.816 96.9835 166.688 97.2715 166.56C97.5595 166.432 97.7995 166.368 97.9915 166.368C99.2075 166.368 100.424 166.432 101.64 166.56C102.376 166.592 103.112 166.736 103.848 166.992C104.424 167.184 104.712 167.456 104.712 167.808C104.712 167.872 104.664 168 104.568 168.192L103.464 168.288C103.24 168.096 102.776 168 102.072 168L101.832 168.144C101.928 168.432 101.976 169.28 101.976 170.688C101.976 172.8 101.96 174.704 101.928 176.4L101.832 182.112C101.832 183.552 101.896 185.296 102.023 187.344C102.12 189.68 102.168 191.44 102.168 192.624V193.248C102.136 193.472 102.12 193.76 102.12 194.112C102.12 194.848 102.168 195.296 102.264 195.456L102.216 195.552C102.216 195.872 102.568 196.032 103.272 196.032C103.56 196.032 103.8 196.016 103.992 195.984H104.712C105.64 195.984 106.104 196.208 106.104 196.656C106.104 196.944 106.008 197.184 105.816 197.376C105.624 197.536 105.368 197.616 105.048 197.616C104.76 197.616 104.504 197.584 104.28 197.52C104.024 197.488 103.752 197.472 103.464 197.472C103.272 197.472 102.984 197.552 102.6 197.712C102.216 197.904 101.928 198 101.736 198ZM113.702 197.328L113.654 195.552C113.622 195.04 113.606 194.464 113.606 193.824C113.606 193.504 113.622 193.232 113.654 193.008L113.702 192.144C113.702 191.824 113.638 191.44 113.51 190.992C113.51 188.848 113.35 184.864 113.03 179.04C112.71 173.408 112.534 169.584 112.502 167.568C110.518 167.568 109.19 167.52 108.518 167.424C107.878 167.264 107.558 167.008 107.558 166.656C107.718 166.304 108.022 166.128 108.47 166.128C109.43 166.128 110.822 166.192 112.646 166.32C114.31 166.48 115.702 166.56 116.822 166.56H117.83L118.838 166.512C119.414 166.512 119.702 166.72 119.702 167.136C119.702 167.328 119.59 167.488 119.366 167.616C119.174 167.712 118.934 167.76 118.646 167.76C118.006 167.76 117.334 167.728 116.63 167.664L114.566 167.568C114.438 167.568 114.374 167.616 114.374 167.712C114.342 167.808 114.326 168.112 114.326 168.624C114.326 171.728 114.518 176.432 114.902 182.736C115.254 189.264 115.43 193.952 115.43 196.8C115.43 197.024 115.286 197.232 114.998 197.424C114.742 197.616 114.486 197.712 114.23 197.712L113.702 197.328ZM127.376 198C126.64 198 126.208 197.84 126.08 197.52C125.92 197.52 125.792 197.536 125.696 197.568H125.312C124.608 197.568 124.16 197.408 123.968 197.088C123.968 196.864 124.096 196.672 124.352 196.512L124.592 196.272H125.984L126.176 196.08L126.272 195.648L126.32 195.072C126.32 193.12 126.272 191.376 126.176 189.84L126.08 188.064L125.984 184.56C125.984 183.312 126.032 181.44 126.128 178.944L126.224 173.376C126.224 170.944 126.144 169.088 125.984 167.808C125.696 167.712 125.216 167.664 124.544 167.664L124.016 167.712C123.824 167.744 123.616 167.76 123.392 167.76C122.784 167.76 122.48 167.488 122.48 166.944C122.48 166.816 122.624 166.688 122.912 166.56C123.2 166.432 123.44 166.368 123.632 166.368C124.848 166.368 126.064 166.432 127.28 166.56C128.016 166.592 128.752 166.736 129.488 166.992C130.064 167.184 130.352 167.456 130.352 167.808C130.352 167.872 130.304 168 130.208 168.192L129.104 168.288C128.88 168.096 128.416 168 127.712 168L127.472 168.144C127.568 168.432 127.616 169.28 127.616 170.688C127.616 172.8 127.6 174.704 127.568 176.4L127.472 182.112C127.472 183.552 127.536 185.296 127.664 187.344C127.76 189.68 127.808 191.44 127.808 192.624V193.248C127.776 193.472 127.76 193.76 127.76 194.112C127.76 194.848 127.808 195.296 127.904 195.456L127.856 195.552C127.856 195.872 128.208 196.032 128.912 196.032C129.2 196.032 129.44 196.016 129.632 195.984H130.352C131.28 195.984 131.744 196.208 131.744 196.656C131.744 196.944 131.648 197.184 131.456 197.376C131.264 197.536 131.008 197.616 130.688 197.616C130.4 197.616 130.144 197.584 129.92 197.52C129.664 197.488 129.392 197.472 129.104 197.472C128.912 197.472 128.624 197.552 128.24 197.712C127.856 197.904 127.568 198 127.376 198ZM139.919 198.144C139.919 195.68 139.519 192.048 138.719 187.248C137.951 182.448 136.927 177.2 135.647 171.504L135.263 170.016L134.639 167.808C134.447 167.136 134.351 166.72 134.351 166.56C134.351 166.464 134.415 166.352 134.543 166.224C134.703 166.064 134.847 165.984 134.975 165.984C135.423 165.984 135.775 166.48 136.031 167.472C136.159 167.888 136.271 168.368 136.367 168.912C136.495 169.424 136.591 169.792 136.655 170.016C136.719 170.496 136.767 170.784 136.799 170.88C137.407 173.344 137.775 174.912 137.903 175.584L138.383 178.032L138.815 180.336L139.247 182.784C139.343 183.648 139.471 184.4 139.631 185.04L140.351 189.744C140.351 189.872 140.463 190.688 140.687 192.192L141.023 194.544C141.663 192.464 142.207 189.296 142.655 185.04C143.103 181.072 143.743 177.088 144.575 173.088C145.279 169.632 145.775 167.12 146.063 165.552L146.687 165.312C146.815 165.344 146.927 165.408 147.023 165.504C147.151 165.6 147.215 165.696 147.215 165.792C147.215 166.496 147.071 167.456 146.783 168.672L146.495 169.92L145.679 173.712C145.199 175.792 144.863 177.392 144.671 178.512C144.511 179.632 144.319 181.248 144.095 183.36L143.999 184.464C143.839 186.192 143.711 187.36 143.615 187.968C143.551 188.576 143.375 189.36 143.087 190.32C142.831 191.28 142.623 192.128 142.463 192.864L142.367 193.968C142.303 195.088 142.175 196.08 141.983 196.944C141.727 198.032 141.215 198.576 140.447 198.576L139.919 198.144ZM140.975 194.688L140.927 194.784L140.975 194.88V194.688ZM154.196 198.624C153.62 198.624 153.3 198.288 153.236 197.616V196.992C153.268 196.832 153.284 196.64 153.284 196.416L153.092 196.224C153.348 195.552 153.476 194.896 153.476 194.256C153.476 193.52 153.428 192.464 153.332 191.088L153.236 187.92C153.236 186.32 153.284 183.92 153.38 180.72C153.508 177.872 153.572 175.456 153.572 173.472L153.476 170.592C153.412 169.728 153.38 168.768 153.38 167.712C153.38 167.232 153.492 166.896 153.716 166.704C153.94 166.48 154.292 166.368 154.772 166.368C155.092 166.368 155.348 166.464 155.54 166.656C155.604 166.688 156.068 166.752 156.932 166.848C157.732 166.944 158.42 167.088 158.996 167.28C159.604 167.472 159.908 167.712 159.908 168C159.908 168.32 159.604 168.64 158.996 168.96C157.172 168.352 155.876 168.048 155.108 168.048L154.868 168.336C154.9 168.624 154.916 169.312 154.916 170.4C154.916 171.776 154.884 173.008 154.82 174.096C154.788 175.216 154.772 176.464 154.772 177.84C154.772 178.736 154.996 179.184 155.444 179.184L156.212 179.136C156.468 179.104 156.74 179.088 157.028 179.088C158.276 179.088 158.9 179.376 158.9 179.952C158.9 180.304 158.82 180.608 158.66 180.864C158.5 181.088 158.26 181.2 157.94 181.2C157.46 181.2 157.092 181.072 156.836 180.816L155.3 180.576H155.06L154.82 180.816V180.96C154.884 181.504 154.916 182.768 154.916 184.752C154.916 186 154.9 187.136 154.868 188.16L154.82 191.568C154.82 192.816 154.868 194.096 154.964 195.408C154.996 196.144 155.156 196.64 155.444 196.896C155.732 197.12 156.26 197.232 157.028 197.232L157.892 197.184C158.18 197.152 158.5 197.136 158.852 197.136C159.78 197.136 160.244 197.344 160.244 197.76C160.244 198.336 159.54 198.624 158.132 198.624H154.196Z" fill="#525252"/>
<rect x="19.5" y="1" width="3" height="7" rx="1" fill="#525252"/>
<path d="M14.7912 5.33863C14.1841 4.94433 14.1841 4.05567 14.7912 3.66137L17.9553 1.6062C18.6206 1.1741 19.5 1.65154 19.5 2.44483V6.55517C19.5 7.34846 18.6206 7.82591 17.9553 7.3938L14.7912 5.33863Z" fill="#525252"/>
<rect width="3" height="7" rx="1" transform="matrix(-1 0 0 1 173.5 1)" fill="#525252"/>
<path d="M178.209 5.33863C178.816 4.94433 178.816 4.05567 178.209 3.66137L175.045 1.6062C174.379 1.1741 173.5 1.65154 173.5 2.44483V6.55517C173.5 7.34846 174.379 7.82591 175.045 7.3938L178.209 5.33863Z" fill="#525252"/>
</svg>
