<svg width="1178" height="1014" viewBox="0 0 1178 1014" fill="none" xmlns="http://www.w3.org/2000/svg">
<g filter="url(#filter0_d_13_132)">
<path d="M682.25 12C785.5 76.385 841.323 61.977 943.25 94" stroke="white" stroke-width="5"/>
<circle cx="848.5" cy="183.385" r="65" fill="white"/>
<path d="M775.538 755.885L978.494 683.885L775.538 501.385L775.538 755.885Z" fill="white"/>
<path d="M775.42 508.714L719.613 266.385L949.792 290.934L775.42 508.714Z" fill="white"/>
<line x1="829.985" y1="238.657" x2="824.985" y2="284.298" stroke="white" stroke-width="5"/>
<path d="M941 293.385L1033.5 430.885L881 523.885" stroke="white" stroke-width="6"/>
<path d="M772.5 51.885L639.5 167.998L730.989 276.385" stroke="white" stroke-width="6"/>
<path d="M785.962 727.385L732.5 880.885L835.5 998.385L800.186 1010.39" stroke="white" stroke-width="6"/>
<path d="M913.522 700.385L950.022 818.324L1153.02 818.324L1153.02 864.885" stroke="white" stroke-width="6"/>
<line x1="729.879" y1="503.409" x2="949.879" y2="531.409" stroke="white" stroke-width="6"/>
<path d="M736.518 519.79C728.785 525.588 717.749 524.07 711.868 516.4C705.987 508.73 707.489 497.813 715.222 492.015C722.955 486.217 733.991 487.735 739.872 495.405C745.752 503.075 744.251 513.993 736.518 519.79Z" fill="white"/>
<path d="M735.755 300.649C709.167 303.823 683.486 312.918 660.35 327.355C637.215 341.792 617.133 361.254 601.385 384.499C585.638 407.745 574.571 434.262 568.89 462.362C563.21 490.461 563.04 519.524 568.392 547.697C573.745 575.871 584.501 602.536 599.976 625.991C615.451 649.447 635.304 669.178 658.27 683.926C681.235 698.674 706.808 708.115 733.357 711.647C759.906 715.179 786.848 712.724 812.466 704.438L809.424 693.572C785.211 701.403 759.747 703.723 734.653 700.385C709.56 697.047 685.39 688.124 663.684 674.185C641.979 660.245 623.214 641.596 608.588 619.427C593.962 597.258 583.795 572.055 578.736 545.427C573.677 518.799 573.838 491.329 579.207 464.771C584.576 438.213 595.036 413.15 609.92 391.179C624.803 369.209 643.784 350.814 665.651 337.169C687.517 323.524 711.79 314.927 736.92 311.927L735.755 300.649Z" fill="white"/>
<path d="M761.941 427.466C749.918 426.229 737.838 427.818 726.648 432.107C715.459 436.396 705.462 443.27 697.441 452.189C689.421 461.109 683.594 471.832 680.417 483.52C677.241 495.208 676.8 507.542 679.13 519.558C681.46 531.574 686.498 542.945 693.849 552.78C701.199 562.616 710.664 570.649 721.5 576.251C732.337 581.852 744.252 584.871 756.312 585.069C768.372 585.268 780.25 582.641 791.016 577.395L785.768 566.767C776.606 571.232 766.498 573.467 756.235 573.298C745.972 573.129 735.832 570.56 726.611 565.793C717.389 561.026 709.335 554.19 703.079 545.82C696.824 537.45 692.537 527.774 690.554 517.548C688.571 507.323 688.946 496.826 691.649 486.88C694.353 476.934 699.311 467.808 706.137 460.218C712.962 452.627 721.469 446.778 730.992 443.128C740.514 439.478 750.794 438.126 761.025 439.178L761.941 427.466Z" fill="white"/>
<path d="M573.372 488.429C595.217 493.706 617.372 497.367 639.299 502.224C650.583 504.723 661.735 508.188 673.109 510.218C677.407 510.985 681.77 511.234 686.068 512.003M686.068 512.003C687.748 512.304 684.963 513.331 686.068 512.003Z" stroke="white" stroke-width="3" stroke-linecap="round"/>
<path d="M571.841 500.319C593.987 504.013 616.334 506.073 638.535 509.343C649.959 511.025 661.317 513.68 672.8 514.888C677.138 515.344 681.508 515.279 685.846 515.737M685.846 515.737C687.543 515.916 684.834 517.141 685.846 515.737Z" stroke="white" stroke-width="3" stroke-linecap="round"/>
<path d="M570.5 511.877C592.847 513.897 615.28 514.274 637.651 515.866C649.163 516.685 660.678 518.48 672.215 518.822C676.574 518.951 680.928 518.557 685.287 518.688M685.287 518.688C686.992 518.74 684.376 520.165 685.287 518.688Z" stroke="white" stroke-width="3" stroke-linecap="round"/>
<path d="M569.5 523.282C591.922 523.986 614.339 523.043 636.762 523.319C648.3 523.461 659.895 524.576 671.432 524.239C675.792 524.112 680.116 523.463 684.476 523.338M684.476 523.338C686.181 523.289 683.647 524.866 684.476 523.338Z" stroke="white" stroke-width="3" stroke-linecap="round"/>
<path d="M729.095 311.392C732.745 334.29 737.956 356.867 742.013 379.683C744.101 391.424 745.275 403.41 747.817 415.058C748.777 419.459 750.225 423.725 751.184 428.126M751.184 428.126C751.558 429.848 749.575 427.579 751.184 428.126Z" stroke="white" stroke-width="3" stroke-linecap="round"/>
<path d="M573.372 488.429C595.217 493.706 617.372 497.367 639.299 502.224C650.583 504.723 661.735 508.188 673.109 510.218C677.407 510.985 681.77 511.234 686.068 512.003M686.068 512.003C687.748 512.304 684.963 513.331 686.068 512.003Z" stroke="white" stroke-width="3" stroke-linecap="round"/>
<path d="M577.152 452.681C597.516 462.413 618.5 470.628 639.027 479.966C649.591 484.771 659.837 490.495 670.58 494.86C674.64 496.509 678.865 497.664 682.923 499.315M682.923 499.315C684.511 499.961 681.582 500.385 682.923 499.315Z" stroke="white" stroke-width="3" stroke-linecap="round"/>
<path d="M720.663 312.516C724.482 335.384 729.859 357.919 734.084 380.703C736.258 392.427 737.521 404.403 740.149 416.031C741.141 420.424 742.621 424.679 743.611 429.072M743.611 429.072C743.999 430.791 741.999 428.538 743.611 429.072Z" stroke="white" stroke-width="3" stroke-linecap="round"/>
<path d="M712.5 317.946C716.773 340.729 722.597 363.144 727.274 385.834C729.681 397.509 731.182 409.456 734.04 421.025C735.12 425.396 736.684 429.618 737.761 433.99M737.761 433.99C738.183 435.7 736.138 433.49 737.761 433.99Z" stroke="white" stroke-width="3" stroke-linecap="round"/>
<path d="M703.5 320.173C708.403 342.82 714.847 365.053 720.152 387.594C722.882 399.193 724.713 411.09 727.891 422.57C729.092 426.907 730.772 431.081 731.971 435.419M731.971 435.419C732.44 437.116 730.335 434.968 731.971 435.419Z" stroke="white" stroke-width="3" stroke-linecap="round"/>
<path d="M574.078 463.426C595.037 471.698 616.513 478.414 637.608 486.283C648.463 490.332 659.063 495.32 670.069 498.916C674.228 500.275 678.519 501.13 682.677 502.491M682.677 502.491C684.303 503.023 681.41 503.653 682.677 502.491Z" stroke="white" stroke-width="3" stroke-linecap="round"/>
<path d="M574.567 476.257C595.921 483.364 617.713 488.889 639.182 495.585C650.23 499.031 661.071 503.429 672.247 506.414C676.469 507.542 680.799 508.16 685.02 509.29M685.02 509.29C686.672 509.732 683.815 510.52 685.02 509.29Z" stroke="white" stroke-width="3" stroke-linecap="round"/>
<path d="M693.5 322.47C699.31 344.886 706.643 366.822 712.85 389.115C716.044 400.587 718.353 412.395 721.99 423.728C723.364 428.01 725.211 432.107 726.583 436.39M726.583 436.39C727.12 438.065 724.93 436.01 726.583 436.39Z" stroke="white" stroke-width="3" stroke-linecap="round"/>
<path d="M683.5 327.929C690.449 349.995 698.895 371.499 706.234 393.421C710.01 404.702 712.92 416.366 717.132 427.484C718.724 431.685 720.777 435.676 722.367 439.877M722.367 439.877C722.989 441.52 720.697 439.588 722.367 439.877Z" stroke="white" stroke-width="3" stroke-linecap="round"/>
<path d="M672.643 333.664C681.107 355.156 691.023 375.978 699.865 397.297C704.416 408.268 708.128 419.686 713.101 430.462C714.98 434.534 717.305 438.362 719.182 442.434M719.182 442.434C719.917 444.027 717.497 442.27 719.182 442.434Z" stroke="white" stroke-width="3" stroke-linecap="round"/>
<path d="M662.608 340.08C672.209 361.054 683.226 381.275 693.196 402.055C698.327 412.748 702.645 423.936 708.187 434.411C710.282 438.368 712.809 442.057 714.901 446.015M714.901 446.015C715.719 447.564 713.209 445.948 714.901 446.015Z" stroke="white" stroke-width="3" stroke-linecap="round"/>
<path d="M651.378 345.483C662.605 365.574 675.184 384.795 686.764 404.662C692.722 414.885 697.911 425.67 704.263 435.64C706.663 439.407 709.473 442.87 711.871 446.638M711.871 446.638C712.809 448.112 710.18 446.714 711.871 446.638Z" stroke="white" stroke-width="3" stroke-linecap="round"/>
<path d="M651.378 345.483C662.605 365.574 675.184 384.795 686.764 404.662C692.722 414.885 697.911 425.67 704.263 435.64C706.663 439.407 709.473 442.87 711.871 446.638M711.871 446.638C712.809 448.112 710.18 446.714 711.871 446.638Z" stroke="white" stroke-width="3" stroke-linecap="round"/>
<path d="M639.468 350.743C651.895 370.064 665.617 388.428 678.382 407.501C684.951 417.317 690.785 427.743 697.73 437.28C700.355 440.883 703.37 444.156 705.993 447.761M705.993 447.761C707.018 449.171 704.309 447.946 705.993 447.761Z" stroke="white" stroke-width="3" stroke-linecap="round"/>
<path d="M632.5 356.369C645.562 375.237 659.887 393.102 673.278 411.71C680.169 421.285 686.346 431.497 693.605 440.782C696.347 444.29 699.47 447.453 702.211 450.962M702.211 450.962C703.283 452.335 700.534 451.208 702.211 450.962Z" stroke="white" stroke-width="3" stroke-linecap="round"/>
<path d="M625.5 364.876C639.472 383.033 654.656 400.121 668.944 418.001C676.297 427.202 682.968 437.076 690.673 445.967C693.584 449.326 696.858 452.321 699.768 455.682M699.768 455.682C700.906 456.996 698.105 456.015 699.768 455.682Z" stroke="white" stroke-width="3" stroke-linecap="round"/>
<path d="M619.5 373.315C634.113 390.924 649.898 407.418 664.817 424.738C672.494 433.651 679.514 443.263 687.532 451.852C690.562 455.097 693.94 457.965 696.968 461.212M696.968 461.212C698.153 462.482 695.319 461.609 696.968 461.212Z" stroke="white" stroke-width="3" stroke-linecap="round"/>
<path d="M613.044 379.91C628.237 396.984 644.565 412.903 660.055 429.678C668.026 438.31 675.363 447.665 683.665 455.961C686.801 459.096 690.274 461.841 693.409 464.977M693.409 464.977C694.635 466.204 691.774 465.433 693.409 464.977Z" stroke="white" stroke-width="3" stroke-linecap="round"/>
<path d="M607.696 388.819C623.61 405.175 640.609 420.324 656.807 436.367C665.142 444.623 672.876 453.629 681.527 461.534C684.795 464.521 688.383 467.103 691.65 470.092M691.65 470.092C692.928 471.26 690.036 470.622 691.65 470.092Z" stroke="white" stroke-width="3" stroke-linecap="round"/>
<path d="M579.337 436.864C598.612 448.735 618.656 459.164 638.133 470.661C648.156 476.577 657.77 483.373 668.017 488.87C671.888 490.947 675.974 492.551 679.845 494.629M679.845 494.629C681.359 495.443 678.404 495.549 679.845 494.629Z" stroke="white" stroke-width="3" stroke-linecap="round"/>
<path d="M599.5 399.798C616.546 414.885 634.586 428.685 651.892 443.438C660.797 451.03 669.156 459.417 678.351 466.635C681.825 469.362 685.588 471.661 689.061 474.39M689.061 474.39C690.42 475.457 687.49 475.043 689.061 474.39Z" stroke="white" stroke-width="3" stroke-linecap="round"/>
<path d="M595.5 409.231C613.02 423.724 631.492 436.898 649.262 451.049C658.406 458.331 667.029 466.426 676.45 473.325C680.01 475.931 683.845 478.1 687.403 480.708M687.403 480.708C688.795 481.728 685.854 481.415 687.403 480.708Z" stroke="white" stroke-width="3" stroke-linecap="round"/>
<path d="M590.251 418.259C608.275 432.074 627.205 444.534 645.466 457.998C654.863 464.926 663.769 472.687 673.43 479.222C677.08 481.691 680.99 483.711 684.638 486.182M684.638 486.182C686.066 487.148 683.115 486.948 684.638 486.182Z" stroke="white" stroke-width="3" stroke-linecap="round"/>
<path d="M582.5 428.906C601.529 441.78 622.173 452.121 641.624 464.337C651.633 470.623 660.734 478.435 671.213 483.985C675.173 486.082 679.614 487.36 683.571 489.46M683.571 489.46C685.119 490.281 681.341 491.372 683.571 489.46Z" stroke="white" stroke-width="3" stroke-linecap="round"/>
<path d="M683.85 528.429C684.461 528.402 685.073 528.378 685.686 528.358C688.421 528.269 685.775 528.361 683.85 528.429Z" fill="white"/>
<path d="M573.5 536.258C598.101 533.99 622.951 533.492 647.62 531.684C660.313 530.754 672.919 528.774 685.686 528.358C690.51 528.201 678.595 528.608 683.418 528.448M683.418 528.448C685.305 528.386 682.27 526.862 683.418 528.448Z" stroke="white" stroke-width="3" stroke-linecap="round"/>
<path d="M802.466 701.633C801.951 679.268 803.378 656.74 803.369 634.33C803.364 622.799 802.211 611.31 802.771 599.73C802.983 595.355 803.809 590.962 804.018 586.587M804.018 586.587C804.099 584.875 802.204 587.57 804.018 586.587Z" stroke="white" stroke-width="3" stroke-linecap="round"/>
<path d="M570.5 549.294C592.875 545.333 615.639 542.915 638.117 539.355C649.684 537.523 661.074 534.771 672.755 533.388C677.168 532.865 681.672 532.835 686.085 532.311M686.085 532.311C687.811 532.106 684.886 531.002 686.085 532.311Z" stroke="white" stroke-width="3" stroke-linecap="round"/>
<path d="M596.506 610.586C615.456 597.892 635.486 586.417 654.719 574.039C664.616 567.67 673.92 560.551 684.132 554.536C687.99 552.263 692.161 550.394 696.018 548.12M696.018 548.12C697.527 547.23 694.296 547.441 696.018 548.12Z" stroke="white" stroke-width="3" stroke-linecap="round"/>
<path d="M792.106 703.08C791.8 680.692 793.435 658.154 793.635 635.725C793.737 624.183 792.693 612.677 793.36 601.091C793.612 596.713 794.478 592.321 794.728 587.944M794.728 587.944C794.825 586.232 792.907 588.917 794.728 587.944Z" stroke="white" stroke-width="3" stroke-linecap="round"/>
<path d="M781.149 700.442C781.406 678 783.604 655.441 784.366 632.967C784.758 621.402 784.005 609.852 784.962 598.253C785.323 593.87 786.297 589.483 786.656 585.101M786.656 585.101C786.796 583.386 784.815 586.045 786.656 585.101Z" stroke="white" stroke-width="3" stroke-linecap="round"/>
<path d="M769.872 701.03C770.915 678.529 773.895 655.956 775.442 633.434C776.238 621.844 775.893 610.243 777.252 598.633C777.766 594.246 778.89 589.869 779.401 585.482M779.401 585.482C779.601 583.767 777.534 586.385 779.401 585.482Z" stroke="white" stroke-width="3" stroke-linecap="round"/>
<path d="M592.5 601.698C612.485 589.9 633.437 579.389 653.675 567.925C664.089 562.026 673.981 555.339 684.676 549.814C688.718 547.726 693.035 546.062 697.075 543.973M697.075 543.973C698.655 543.156 695.421 543.196 697.075 543.973Z" stroke="white" stroke-width="3" stroke-linecap="round"/>
<path d="M586.5 592.277C607.124 581.721 628.639 572.509 649.496 562.302C660.229 557.049 670.485 550.979 681.478 546.117C685.631 544.28 690.036 542.883 694.188 541.044M694.188 541.044C695.812 540.325 692.581 540.168 694.188 541.044Z" stroke="white" stroke-width="3" stroke-linecap="round"/>
<path d="M585.5 582.346C606.547 572.725 628.427 564.486 649.693 555.223C660.636 550.457 671.136 544.852 682.322 540.487C686.548 538.838 691.007 537.64 695.233 535.989M695.233 535.989C696.886 535.343 693.664 535.041 695.233 535.989Z" stroke="white" stroke-width="3" stroke-linecap="round"/>
<path d="M580.5 572.596C602.202 564.684 624.632 558.218 646.525 550.681C657.791 546.803 668.679 542.053 680.157 538.595C684.494 537.289 689.029 536.45 693.365 535.142M693.365 535.142C695.061 534.63 691.871 534.072 693.365 535.142Z" stroke="white" stroke-width="3" stroke-linecap="round"/>
<path d="M578.739 559.147C602.358 553.24 626.518 548.846 650.28 543.332C662.507 540.495 674.472 536.75 686.857 534.353C691.537 533.447 687.198 532.928 691.877 532.02M691.877 532.02C693.707 531.665 690.489 530.812 691.877 532.02Z" stroke="white" stroke-width="3" stroke-linecap="round"/>
<path d="M757.38 701.849C759.659 677.988 763.868 654.126 766.65 630.263C768.082 617.983 768.38 605.646 770.372 593.366C771.125 588.726 772.484 584.121 773.235 579.481M773.235 579.481C773.528 577.666 771.329 580.367 773.235 579.481Z" stroke="white" stroke-width="3" stroke-linecap="round"/>
<path d="M744.211 699.728C747.834 677.162 753.372 654.676 757.493 632.129C759.613 620.526 760.612 608.822 763.289 597.243C764.301 592.867 765.913 588.551 766.922 584.175M766.922 584.175C767.317 582.464 764.98 584.938 766.922 584.175Z" stroke="white" stroke-width="3" stroke-linecap="round"/>
<path d="M729.956 697.604C735.518 675.124 742.967 652.838 749.021 630.406C752.136 618.863 754.15 607.152 757.815 595.665C759.199 591.325 761.172 587.079 762.554 582.739M762.554 582.739C763.094 581.041 760.566 583.39 762.554 582.739Z" stroke="white" stroke-width="3" stroke-linecap="round"/>
<path d="M716.54 694.604C723.579 672.269 732.477 650.217 740 627.953C743.871 616.497 746.662 604.82 751.074 593.446C752.741 589.148 754.985 584.972 756.65 580.674M756.65 580.674C757.301 578.993 754.634 581.237 756.65 580.674Z" stroke="white" stroke-width="3" stroke-linecap="round"/>
<path d="M701.908 692.899C711.087 670.904 722.073 649.32 731.723 627.43C736.689 616.166 740.61 604.607 746.101 593.462C748.176 589.251 750.808 585.202 752.881 580.991M752.881 580.991C753.691 579.343 750.834 581.42 752.881 580.991Z" stroke="white" stroke-width="3" stroke-linecap="round"/>
<path d="M701.908 692.899C711.087 670.904 722.073 649.32 731.723 627.43C736.689 616.166 740.61 604.607 746.101 593.462C748.176 589.251 750.808 585.202 752.881 580.991M752.881 580.991C753.691 579.343 750.834 581.42 752.881 580.991Z" stroke="white" stroke-width="3" stroke-linecap="round"/>
<path d="M686.491 691.527C697.274 669.894 709.816 648.769 721.058 627.266C726.842 616.201 731.614 604.785 737.911 593.868C740.29 589.742 743.209 585.809 745.586 581.683M745.586 581.683C746.515 580.07 743.525 582.008 745.586 581.683Z" stroke="white" stroke-width="3" stroke-linecap="round"/>
<path d="M676.926 688.354C688.568 666.956 701.939 646.117 714.032 624.862C720.255 613.924 725.485 602.606 732.211 591.83C734.753 587.759 737.823 583.896 740.362 579.824M740.362 579.824C741.355 578.231 738.298 580.091 740.362 579.824Z" stroke="white" stroke-width="3" stroke-linecap="round"/>
<path d="M666.706 682.514C679.592 661.508 694.161 641.136 707.486 620.293C714.343 609.568 720.237 598.418 727.584 587.876C730.36 583.894 733.648 580.142 736.422 576.158M736.422 576.158C737.506 574.6 734.355 576.339 736.422 576.158Z" stroke="white" stroke-width="3" stroke-linecap="round"/>
<path d="M657.701 676.441C671.473 655.755 686.891 635.758 701.092 615.249C708.4 604.696 714.77 593.687 722.556 583.333C725.498 579.421 728.94 575.757 731.88 571.844M731.88 571.844C733.03 570.314 729.816 571.963 731.88 571.844Z" stroke="white" stroke-width="3" stroke-linecap="round"/>
<path d="M648.543 672.217C663.126 651.857 679.318 632.234 694.322 612.064C702.042 601.684 708.848 590.821 717.037 580.655C720.131 576.815 723.711 573.237 726.803 569.395M726.803 569.395C728.012 567.893 724.744 569.455 726.803 569.395Z" stroke="white" stroke-width="3" stroke-linecap="round"/>
<path d="M640.22 665.515C655.006 646.688 671.353 628.658 686.546 610.036C694.364 600.454 701.296 590.357 709.568 581.006C712.694 577.473 716.291 574.219 719.415 570.685M719.415 570.685C720.637 569.302 717.392 570.632 719.415 570.685Z" stroke="white" stroke-width="3" stroke-linecap="round"/>
<path d="M603.423 622.938C621.511 608.308 640.839 594.784 659.251 580.44C668.726 573.059 677.512 564.99 687.348 557.93C691.064 555.263 695.145 552.966 698.86 550.297M698.86 550.297C700.313 549.253 697.019 549.797 698.86 550.297Z" stroke="white" stroke-width="3" stroke-linecap="round"/>
<path d="M628.037 657.729C644.747 639.264 662.927 621.699 680.022 603.467C688.818 594.085 696.787 584.128 706.011 575.007C709.496 571.561 713.421 568.426 716.904 564.979M716.904 564.979C718.267 563.63 714.897 564.815 716.904 564.979Z" stroke="white" stroke-width="3" stroke-linecap="round"/>
<path d="M621.22 650.142C637.781 632.961 655.772 616.719 672.706 599.78C681.421 591.064 689.33 581.752 698.461 573.308C701.911 570.118 705.788 567.25 709.236 564.059M709.236 564.059C710.584 562.811 707.271 563.81 709.236 564.059Z" stroke="white" stroke-width="3" stroke-linecap="round"/>
<path d="M615.66 640.621C633.046 623.75 651.811 607.867 669.558 591.251C678.69 582.701 687.049 573.528 696.582 565.265C700.185 562.143 704.197 559.358 707.797 556.234M707.797 556.234C709.206 555.012 705.85 555.929 707.797 556.234Z" stroke="white" stroke-width="3" stroke-linecap="round"/>
<path d="M608.45 631.277C625.611 615.597 645.306 601.721 663.128 586.509C672.299 578.681 680.016 569.751 689.924 562.447C693.668 559.688 698.186 557.522 701.927 554.76M701.927 554.76C703.39 553.679 698.899 553.639 701.927 554.76Z" stroke="white" stroke-width="3" stroke-linecap="round"/>
</g>
<g filter="url(#filter1_d_13_132)">
<path d="M318.675 535.883C311.455 544.779 309.302 546.407 294.352 529.636C281.019 514.678 285.976 508.764 296.652 504.4C305.275 500.875 314.199 502.528 319.942 510.146C325.684 517.764 323.876 528.15 318.675 535.883Z" fill="white"/>
<path d="M366.285 438.032C359.219 443.414 348.835 441.601 343.093 433.983C337.351 426.365 338.424 415.826 345.491 410.444C352.557 405.062 362.94 406.875 368.682 414.493C374.425 422.111 373.351 432.65 366.285 438.032Z" fill="white"/>
<path d="M305.758 430.668C298.692 436.05 288.308 434.237 282.566 426.619C276.824 419 277.897 408.462 284.964 403.08C292.03 397.698 302.413 399.511 308.155 407.129C313.898 414.747 312.824 425.286 305.758 430.668Z" fill="white"/>
<path d="M412.741 485.725C405.675 491.107 395.291 489.294 389.549 481.676C383.807 474.057 384.88 463.519 391.947 458.137C399.013 452.755 409.396 454.568 415.138 462.186C420.881 469.804 419.807 480.343 412.741 485.725Z" fill="white"/>
<path d="M422.411 551.994C415.345 557.376 404.962 555.563 399.22 547.945C393.477 540.327 394.551 529.788 401.617 524.406C408.683 519.024 419.067 520.837 424.809 528.455C430.551 536.073 429.478 546.612 422.411 551.994Z" fill="white"/>
<path d="M397.59 614.324C390.524 619.706 380.14 617.893 374.398 610.275C368.656 602.657 369.729 592.118 376.796 586.736C383.862 581.355 394.245 583.167 399.987 590.786C405.73 598.404 404.656 608.942 397.59 614.324Z" fill="white"/>
<path d="M252.398 467.534C272.857 453.639 295.543 447.579 321.003 449.584C349.305 451.814 368.488 467.856 377.139 496.679C384.164 520.081 372.682 552.068 360.061 570.76C356.427 576.143 341.447 588.552 346.722 584.839" stroke="white" stroke-width="3" stroke-linecap="round"/>
<path d="M242.887 454.022C267.506 437.311 294.878 430.131 325.668 432.769C359.895 435.701 383.21 455.336 393.895 490.407C402.571 518.883 388.948 557.636 373.841 580.236C369.492 586.743 351.483 601.695 357.83 597.227" stroke="white" stroke-width="3" stroke-linecap="round"/>
<path d="M269.691 492.101C282.79 483.19 297.18 479.104 313.203 479.981C331.015 480.956 342.878 490.628 347.917 508.377C352.009 522.789 344.309 542.791 336.082 554.565C333.713 557.955 324.089 565.867 327.469 563.488" stroke="white" stroke-width="3" stroke-linecap="round"/>
<path d="M260.18 478.589C277.121 467.08 295.869 462.007 316.877 463.56C340.23 465.286 356.003 478.411 363.034 502.09C368.742 521.316 359.143 547.675 348.654 563.101C345.634 567.543 333.221 577.809 337.589 574.734" stroke="white" stroke-width="3" stroke-linecap="round"/>
<path d="M278.337 504.385C287.597 498.075 297.676 495.043 308.808 495.377C321.182 495.748 329.275 502.165 332.487 514.219C335.094 524.006 329.406 537.81 323.488 545.997C321.784 548.355 314.958 553.924 317.349 552.241" stroke="white" stroke-width="3" stroke-linecap="round"/>
<line x1="211.999" y1="624.319" x2="212.999" y2="662.319" stroke="white" stroke-width="5"/>
<line x1="218.999" y1="257.319" x2="219.999" y2="295.319" stroke="white" stroke-width="5"/>
<line x1="323.999" y1="606.319" x2="324.999" y2="644.319" stroke="white" stroke-width="5"/>
<path d="M251.311 463.385L400.811 634.385L130.5 693.635L251.311 463.385Z" fill="white"/>
<line x1="36.774" y1="563.036" x2="251.521" y2="509.474" stroke="white" stroke-width="6"/>
<circle cx="216.5" cy="195.385" r="65" fill="white"/>
<path d="M322 299.385L428.5 336.885L385 465.385" stroke="white" stroke-width="6"/>
<path d="M113.5 298.385L4 426.385L95.9084 546.385" stroke="white" stroke-width="6"/>
<path d="M252 466.385L327.512 292.627L105.347 295.728L252 466.385Z" fill="white"/>
<path d="M202 677.385L256.5 830.885L151.5 948.385L187.5 960.385" stroke="white" stroke-width="6"/>
<path d="M327 644.885L455 639.385L410 852.385L455 869.385" stroke="white" stroke-width="6"/>
<path d="M171.117 141.813C173.278 141.249 175.985 139.038 177.759 137.619C178.803 136.784 180.118 135.702 180.91 134.617C181.976 133.159 183.62 132.065 184.529 130.7" stroke="white" stroke-width="3" stroke-linecap="round"/>
<path d="M164.591 136.761C166.686 135.988 169.163 133.522 170.789 131.935C171.746 131.002 172.948 129.796 173.63 128.639C174.548 127.083 176.076 125.833 176.848 124.385" stroke="white" stroke-width="3" stroke-linecap="round"/>
<path d="M159.491 132.264C161.38 131.074 163.294 128.149 164.557 126.26C165.3 125.149 166.226 123.72 166.654 122.447C167.23 120.735 168.466 119.196 168.922 117.619" stroke="white" stroke-width="3" stroke-linecap="round"/>
<path d="M152.803 128.552C154.433 127.025 155.757 123.791 156.639 121.696C157.158 120.464 157.797 118.886 157.976 117.555C158.216 115.765 159.139 114.019 159.287 112.385" stroke="white" stroke-width="3" stroke-linecap="round"/>
<path d="M163.521 175.902C149.134 186.688 129.158 184.59 118.903 171.215C108.648 157.84 111.998 138.253 126.385 127.467C140.772 116.681 160.748 118.779 171.003 132.154C181.258 145.529 177.908 165.116 163.521 175.902Z" fill="white"/>
<path d="M144.78 126.568C146.043 124.727 146.641 121.283 147.051 119.048C147.293 117.733 147.577 116.055 147.466 114.716C147.315 112.916 147.84 111.013 147.634 109.385" stroke="white" stroke-width="3" stroke-linecap="round"/>
<path d="M138.324 126.791C139.19 124.732 139.08 121.239 139.032 118.967C139.003 117.631 138.943 115.929 138.564 114.64C138.054 112.908 138.185 110.937 137.654 109.385" stroke="white" stroke-width="3" stroke-linecap="round"/>
<path d="M131.738 129.064C132.059 126.854 131.076 123.5 130.458 121.313C130.094 120.027 129.609 118.395 128.918 117.243C127.989 115.694 127.62 113.754 126.716 112.385" stroke="white" stroke-width="3" stroke-linecap="round"/>
<path d="M128.33 132.782C127.91 130.589 125.882 127.742 124.583 125.878C123.818 124.781 122.825 123.399 121.795 122.536C120.41 121.377 119.426 119.665 118.124 118.667" stroke="white" stroke-width="3" stroke-linecap="round"/>
<path d="M123.112 137.788C122.467 135.65 120.156 133.028 118.67 131.309C117.796 130.297 116.665 129.025 115.551 128.274C114.054 127.264 112.898 125.663 111.5 124.805" stroke="white" stroke-width="3" stroke-linecap="round"/>
<path d="M122.299 142.027C121.07 140.195 117.681 138.392 115.497 137.201C114.212 136.5 112.555 135.627 111.026 135.242C108.969 134.725 107.217 133.549 105.314 133.146" stroke="white" stroke-width="3" stroke-linecap="round"/>
<path d="M119.908 149.715C118.589 147.947 115.114 146.316 112.873 145.235C111.554 144.599 109.857 143.811 108.31 143.503C106.23 143.088 104.421 142.002 102.5 141.694" stroke="white" stroke-width="3" stroke-linecap="round"/>
<path d="M119.41 154.229C117.671 152.874 113.888 152.221 111.44 151.772C110 151.509 108.155 151.198 106.581 151.31C104.466 151.462 102.434 150.893 100.5 151.106" stroke="white" stroke-width="3" stroke-linecap="round"/>
<path d="M120.571 160.011C118.538 159.156 114.716 159.512 112.236 159.717C110.777 159.837 108.914 160.018 107.424 160.537C105.422 161.234 103.312 161.215 101.5 161.924" stroke="white" stroke-width="3" stroke-linecap="round"/>
<path d="M121.065 165.458C118.926 164.919 115.202 165.846 112.781 166.423C111.357 166.762 109.542 167.221 108.148 167.959C106.273 168.95 104.184 169.249 102.5 170.223" stroke="white" stroke-width="3" stroke-linecap="round"/>
<path d="M122.533 167.579C120.335 167.759 117.109 169.839 115.004 171.166C113.765 171.947 112.196 172.967 111.115 174.115C109.66 175.659 107.78 176.616 106.5 178.081" stroke="white" stroke-width="3" stroke-linecap="round"/>
<path d="M128.005 171.893C125.85 172.362 122.927 174.85 121.015 176.444C119.891 177.381 118.471 178.6 117.55 179.881C116.312 181.603 114.575 182.8 113.5 184.422" stroke="white" stroke-width="3" stroke-linecap="round"/>
<path d="M136.714 176.385C135.266 178.048 134.407 181.789 133.826 184.209C133.484 185.632 133.073 187.459 133.099 189.036C133.135 191.156 132.456 193.154 132.563 195.097" stroke="white" stroke-width="3" stroke-linecap="round"/>
<path d="M144.714 176.385C143.266 178.048 142.407 181.789 141.826 184.209C141.484 185.632 141.073 187.459 141.099 189.036C141.135 191.156 140.456 193.154 140.563 195.097" stroke="white" stroke-width="3" stroke-linecap="round"/>
<path d="M153.714 177.385C152.266 179.048 151.407 182.789 150.826 185.209C150.484 186.632 150.073 188.459 150.099 190.036C150.135 192.156 149.456 194.154 149.563 196.097" stroke="white" stroke-width="3" stroke-linecap="round"/>
<path d="M132.15 174.385C130.265 175.529 128.31 178.832 127.02 180.961C126.262 182.213 125.315 183.828 124.861 185.338C124.25 187.369 122.996 189.066 122.507 190.949" stroke="white" stroke-width="3" stroke-linecap="round"/>
</g>
<defs>
<filter id="filter0_d_13_132" x="564.5" y="0.878662" width="607.522" height="1012.35" filterUnits="userSpaceOnUse" color-interpolation-filters="sRGB">
<feFlood flood-opacity="0" result="BackgroundImageFix"/>
<feColorMatrix in="SourceAlpha" type="matrix" values="0 0 0 0 0 0 0 0 0 0 0 0 0 0 0 0 0 0 127 0" result="hardAlpha"/>
<feOffset dx="12" dy="-5"/>
<feGaussianBlur stdDeviation="2"/>
<feComposite in2="hardAlpha" operator="out"/>
<feColorMatrix type="matrix" values="0 0 0 0 0 0 0 0 0 0 0 0 0 0 0 0 0 0 0.25 0"/>
<feBlend mode="normal" in2="BackgroundImageFix" result="effect1_dropShadow_13_132"/>
<feBlend mode="normal" in="SourceGraphic" in2="effect1_dropShadow_13_132" result="shape"/>
</filter>
<filter id="filter1_d_13_132" x="0.141281" y="96.8847" width="476.593" height="867.346" filterUnits="userSpaceOnUse" color-interpolation-filters="sRGB">
<feFlood flood-opacity="0" result="BackgroundImageFix"/>
<feColorMatrix in="SourceAlpha" type="matrix" values="0 0 0 0 0 0 0 0 0 0 0 0 0 0 0 0 0 0 127 0" result="hardAlpha"/>
<feOffset dx="12" dy="-5"/>
<feGaussianBlur stdDeviation="3"/>
<feComposite in2="hardAlpha" operator="out"/>
<feColorMatrix type="matrix" values="0 0 0 0 0 0 0 0 0 0 0 0 0 0 0 0 0 0 0.25 0"/>
<feBlend mode="normal" in2="BackgroundImageFix" result="effect1_dropShadow_13_132"/>
<feBlend mode="normal" in="SourceGraphic" in2="effect1_dropShadow_13_132" result="shape"/>
</filter>
</defs>
</svg>
